<svg width="62" height="63" viewBox="0 0 62 63" fill="none" xmlns="http://www.w3.org/2000/svg">
<path d="M31 0.75C48.0742 0.75 62 14.6758 62 31.75C62 48.9453 48.0742 62.75 31 62.75C13.8047 62.75 0 48.9453 0 31.75C0 14.6758 13.8047 0.75 31 0.75ZM31 10.4375C28.2148 10.4375 26.1562 12.6172 26.1562 15.2812C26.1562 18.0664 28.2148 20.125 31 20.125C33.6641 20.125 35.8438 18.0664 35.8438 15.2812C35.8438 12.6172 33.6641 10.4375 31 10.4375ZM45.2891 26.9062C46.8633 26.4219 47.7109 24.8477 47.3477 23.2734C46.8633 21.6992 45.2891 20.8516 43.7148 21.2148L36.5703 23.2734C32.9375 24.3633 29.0625 24.3633 25.3086 23.2734L18.1641 21.2148C16.5898 20.8516 15.0156 21.6992 14.5312 23.2734C14.168 24.8477 15.0156 26.4219 16.5898 26.9062L23.7344 28.8438C24.2188 29.0859 24.7031 29.0859 25.1875 29.207V36.7148L21.4336 47.3711C20.8281 48.8242 21.6758 50.5195 23.25 51.0039C23.4922 51.125 23.8555 51.125 24.2188 51.125C25.3086 51.125 26.5195 50.3984 26.8828 49.1875L30.0312 40.7109C30.3945 39.8633 31.4844 39.8633 31.8477 40.7109L34.9961 49.1875C35.3594 50.3984 36.5703 51.125 37.7812 51.125C38.0234 51.125 38.3867 51.125 38.6289 51.0039C40.2031 50.5195 41.0508 48.8242 40.4453 47.3711L36.8125 36.7148V29.207C37.1758 29.0859 37.6602 29.0859 38.1445 28.8438L45.2891 26.9062Z" fill="#1B1F45"/>
</svg>
