<svg width="62" height="63" viewBox="0 0 62 63" fill="none" xmlns="http://www.w3.org/2000/svg">
<path d="M31 0.75C48.0742 0.75 62 14.6758 62 31.75C62 48.9453 48.0742 62.75 31 62.75C13.8047 62.75 0 48.9453 0 31.75C0 14.6758 13.8047 0.75 31 0.75ZM40.6875 37.4414L34.9961 31.8711L40.6875 26.1797C41.8984 24.9688 41.8984 23.1523 40.6875 22.0625C39.5977 20.8516 37.7812 20.8516 36.6914 22.0625L31 27.7539L25.1875 21.9414C24.0977 20.7305 22.2812 20.7305 21.1914 21.9414C19.9805 23.0312 19.9805 24.8477 21.1914 26.0586L26.8828 31.75L21.1914 37.4414C19.9805 38.6523 19.9805 40.4688 21.1914 41.5586C22.2812 42.7695 24.0977 42.7695 25.1875 41.5586L31 35.8672L36.5703 41.5586C37.6602 42.7695 39.4766 42.7695 40.6875 41.5586C41.7773 40.4688 41.7773 38.6523 40.6875 37.4414Z" fill="#1B1F45"/>
</svg>
