<svg width="105" height="106" viewBox="0 0 105 106" fill="none" xmlns="http://www.w3.org/2000/svg">
<g clip-path="url(#clip0_67_2)">
<path d="M88.84 34.55C86.84 31.24 82.39 30.26 79.18 29.8L78.4 29.69C81.9986 34.8748 85.201 40.3236 87.98 45.99C88.29 45.34 88.52 44.79 88.69 44.33C90.2 40.22 90.24 36.94 88.84 34.55Z" fill="#00589A"/>
<path d="M49.66 77.69C51.43 82.3 53.29 84.69 55.51 85.11C58.28 85.67 61.96 83.37 67.38 77.66C68.6379 76.3429 69.8262 74.961 70.94 73.52C64.75 73.68 57.29 74.29 48.75 75.36C48.93 75.8 49.66 77.69 49.66 77.69Z" fill="#00589A"/>
<path d="M37.27 52.19C40.8067 57.7659 43.874 63.6261 46.44 69.71L48.88 69.35C57.5771 68.0595 66.372 67.5474 75.16 67.82C79.4404 61.638 83.3088 55.1807 86.74 48.49C83.158 41.6926 78.9391 35.2504 74.14 29.25C65.8143 28.5788 57.4437 28.696 49.14 29.6C47.4043 33.7487 45.4207 37.7894 43.2 41.7C40.93 45.7 38.96 49.12 37.28 52.19" fill="#00589A"/>
<path d="M89.37 15.43C80.3738 6.38216 68.3773 0.939536 55.644 0.128965C42.9107 -0.681607 30.3209 3.19593 20.25 11.03C11.4028 17.9563 4.97565 27.506 1.89001 38.31C13.19 32.79 28.03 28.47 43.89 26.14C44.99 22.67 45.76 19.42 46.46 16.55C47.9 10.55 48.92 6.22001 51.71 5.45001C54.71 4.61001 59.41 7.89001 68.06 16.76L74.62 24.56C77.9575 24.7772 81.2776 25.2081 84.56 25.85L84.92 25.93C87.67 26.48 93.41 27.65 95.77 31.93C97.13 34.38 97.14 37.47 95.77 41.13C94.26 45.34 92.67 49.13 90.94 52.79C92.4009 56.3762 93.6366 60.05 94.64 63.79C94.64 63.97 94.73 64.25 94.77 64.55C94.7932 65.1949 94.5838 65.8266 94.18 66.33L93.92 66.68L93.78 66.26C92.7114 62.4353 91.3953 58.684 89.84 55.03C87.5522 59.6056 84.9214 64.0015 81.97 68.18C88.5122 68.5686 94.9915 69.6787 101.29 71.49C104.885 61.9885 105.674 51.6538 103.563 41.7167C101.451 31.7795 96.5283 22.6586 89.38 15.44" fill="#00589A"/>
<path d="M32.19 68.36C33.43 70.2 36.89 70.74 43.36 70.08C41.2929 64.7082 38.8502 59.4887 36.05 54.46C32.56 61.06 30.59 65.95 32.19 68.36Z" fill="#00589A"/>
<path d="M70.16 24.34C63.9 16.91 60.32 14.02 57.82 14.42C55.32 14.82 53.56 18.86 51.06 24.97L50.98 25.19C57.3465 24.4703 63.7547 24.1863 70.16 24.34Z" fill="#00589A"/>
<path d="M77.95 73.56C74.9 77.38 71.4 81.32 66.95 85.98C60.43 92.7 56.82 95.77 53.95 94.98C51.95 94.46 50.45 92.09 49.11 87.27C47.97 83.27 46.77 79.34 45.52 75.72L40.75 76.4C30.03 77.96 24.07 77.11 21.97 73.78C18.97 69.04 24.55 59.78 32.19 48.09C30.4976 45.5734 28.6751 43.1468 26.73 40.82C26.5558 40.6353 26.3954 40.4381 26.25 40.23L25.97 39.9H26.4C26.7369 39.8694 27.0765 39.9116 27.3957 40.0238C27.7149 40.1359 28.0062 40.3154 28.25 40.55C29.97 42.39 31.67 44.37 33.25 46.45L34 45.29L37.45 40.03C39.3962 37.0239 41.0313 33.8274 42.33 30.49C22.8 33.49 8.74 39.55 2.8 47.28C0.500001 50.1 -0.380011 52.9 0.209989 58.09C1.45893 70.1857 6.82917 81.484 15.42 90.09C20.2438 94.9747 25.9963 98.8448 32.3387 101.472C38.681 104.1 45.485 105.432 52.35 105.39C59.9077 105.386 67.3746 103.742 74.2355 100.573C81.0964 97.4028 87.188 92.7823 92.09 87.03C94.49 83.8 95.21 81.11 94.21 79.03C92.69 75.81 87.21 74.03 77.95 73.61" fill="#00589A"/>
</g>
<defs>
<clipPath id="clip0_67_2">
<rect width="104.71" height="105.4" fill="white"/>
</clipPath>
</defs>
</svg>
