<svg width="222" height="74" viewBox="0 0 222 74" fill="none" xmlns="http://www.w3.org/2000/svg">
<path d="M9.82617 28.3174C7.25326 28.3174 5.20085 27.4626 3.66895 25.7529C2.14551 24.0433 1.38379 21.8216 1.38379 19.0879C1.38379 16.1849 2.16667 13.8617 3.73242 12.1182C5.30664 10.3662 7.45215 9.49023 10.1689 9.49023C12.6234 9.49023 14.6081 10.3324 16.123 12.0166C17.6465 13.6924 18.4082 15.8929 18.4082 18.6182C18.4082 21.6312 17.6296 24.001 16.0723 25.7275C14.515 27.4541 12.4329 28.3174 9.82617 28.3174ZM9.95312 10.6328C7.83724 10.6328 6.09375 11.3988 4.72266 12.9307C3.36003 14.4626 2.67871 16.4684 2.67871 18.9482C2.67871 21.4535 3.32617 23.4508 4.62109 24.9404C5.91602 26.4215 7.64258 27.1621 9.80078 27.1621C12.0521 27.1621 13.8337 26.43 15.1455 24.9658C16.4574 23.4932 17.1133 21.445 17.1133 18.8213C17.1133 16.2484 16.4701 14.2425 15.1836 12.8037C13.9056 11.3564 12.1621 10.6328 9.95312 10.6328ZM35.0137 28L24.1719 13.2861C23.9518 12.9899 23.7572 12.6937 23.5879 12.3975L23.4229 12.1436H23.3721C23.389 12.3636 23.3975 12.6302 23.3975 12.9434V28H22.1406V9.79492H23.1055L33.8711 24.3818C34.1081 24.7035 34.3662 25.0928 34.6455 25.5498H34.709C34.6667 24.9574 34.6455 24.4495 34.6455 24.0264V9.79492H35.9023V28H35.0137ZM40.5742 28V9.79492H45.3604C46.7907 9.79492 47.929 10.18 48.7754 10.9502C49.6217 11.7204 50.0449 12.7402 50.0449 14.0098C50.0449 15.0677 49.7614 15.986 49.1943 16.7646C48.6357 17.5348 47.8529 18.0807 46.8457 18.4023V18.4531C48.1068 18.5716 49.1012 19.0244 49.8291 19.8115C50.557 20.5902 50.9209 21.5846 50.9209 22.7949C50.9209 24.3268 50.4258 25.5794 49.4355 26.5527C48.4453 27.5176 47.1208 28 45.4619 28H40.5742ZM41.8311 10.9502V17.9961H44.3701C45.6904 17.9961 46.7484 17.6576 47.5439 16.9805C48.3395 16.3034 48.7373 15.3851 48.7373 14.2256C48.7373 12.042 47.4466 10.9502 44.8652 10.9502H41.8311ZM41.8311 19.1387V26.8574H45.208C46.6383 26.8574 47.7301 26.5146 48.4834 25.8291C49.2451 25.1436 49.626 24.1702 49.626 22.9092C49.626 20.3955 47.9206 19.1387 44.5098 19.1387H41.8311ZM62.207 28.3174C59.6341 28.3174 57.5817 27.4626 56.0498 25.7529C54.5264 24.0433 53.7646 21.8216 53.7646 19.0879C53.7646 16.1849 54.5475 13.8617 56.1133 12.1182C57.6875 10.3662 59.833 9.49023 62.5498 9.49023C65.0042 9.49023 66.9889 10.3324 68.5039 12.0166C70.0273 13.6924 70.7891 15.8929 70.7891 18.6182C70.7891 21.6312 70.0104 24.001 68.4531 25.7275C66.8958 27.4541 64.8138 28.3174 62.207 28.3174ZM62.334 10.6328C60.2181 10.6328 58.4746 11.3988 57.1035 12.9307C55.7409 14.4626 55.0596 16.4684 55.0596 18.9482C55.0596 21.4535 55.707 23.4508 57.002 24.9404C58.2969 26.4215 60.0234 27.1621 62.1816 27.1621C64.4329 27.1621 66.2145 26.43 67.5264 24.9658C68.8382 23.4932 69.4941 21.445 69.4941 18.8213C69.4941 16.2484 68.8509 14.2425 67.5645 12.8037C66.2865 11.3564 64.543 10.6328 62.334 10.6328ZM85.8457 28L83.7637 22.3379H75.8672L73.7852 28H72.4014L79.2695 9.79492H80.4629L87.2549 28H85.8457ZM80.2598 12.7656C80.1667 12.5117 80.0905 12.262 80.0312 12.0166C79.972 11.805 79.9085 11.5934 79.8408 11.3818H79.79C79.6462 11.9404 79.5065 12.3932 79.3711 12.7402L76.3115 21.1826H83.332L80.2598 12.7656ZM99.6582 28L97.2334 22.668C96.734 21.5677 96.2347 20.8314 95.7354 20.459C95.236 20.0781 94.6097 19.8877 93.8564 19.8877H91.5967V28H90.3398V9.79492H95.3926C97.0007 9.79492 98.2617 10.2308 99.1758 11.1025C100.098 11.9658 100.56 13.1084 100.56 14.5303C100.56 15.8421 100.183 16.9382 99.4297 17.8184C98.6764 18.6986 97.6227 19.2656 96.2686 19.5195V19.5703C96.988 19.8581 97.6904 20.734 98.376 22.1982L101.08 28H99.6582ZM91.5967 10.9502V18.7451H94.7324C96.1204 18.7451 97.2207 18.3812 98.0332 17.6533C98.8542 16.9255 99.2646 15.9268 99.2646 14.6572C99.2646 13.4977 98.8965 12.5921 98.1602 11.9404C97.4238 11.2803 96.3701 10.9502 94.999 10.9502H91.5967ZM104.787 28V9.79492H109.345C112.366 9.79492 114.664 10.5482 116.238 12.0547C117.812 13.5612 118.6 15.7575 118.6 18.6436C118.6 21.4196 117.753 23.6751 116.061 25.4102C114.376 27.1367 112.049 28 109.078 28H104.787ZM106.044 10.9502V26.8574H108.9C111.6 26.8574 113.674 26.1592 115.121 24.7627C116.568 23.3577 117.292 21.335 117.292 18.6943C117.292 13.5316 114.579 10.9502 109.154 10.9502H106.044ZM122.307 28V9.79492H123.563V28H122.307ZM141.121 28L130.279 13.2861C130.059 12.9899 129.865 12.6937 129.695 12.3975L129.53 12.1436H129.479C129.496 12.3636 129.505 12.6302 129.505 12.9434V28H128.248V9.79492H129.213L139.979 24.3818C140.215 24.7035 140.474 25.0928 140.753 25.5498H140.816C140.774 24.9574 140.753 24.4495 140.753 24.0264V9.79492H142.01V28H141.121ZM159.847 26.7305C157.968 27.7884 156.034 28.3174 154.045 28.3174C151.565 28.3174 149.559 27.4753 148.027 25.791C146.495 24.1068 145.729 21.8978 145.729 19.1641C145.729 16.4049 146.555 14.1029 148.205 12.2578C149.855 10.4128 152.06 9.49023 154.819 9.49023C156.419 9.49023 157.972 9.81185 159.479 10.4551V11.8262C157.828 11.0306 156.216 10.6328 154.642 10.6328C152.348 10.6328 150.503 11.4157 149.106 12.9814C147.718 14.5472 147.024 16.5446 147.024 18.9736C147.024 21.5296 147.676 23.5355 148.979 24.9912C150.291 26.4385 152.056 27.1621 154.273 27.1621C155.915 27.1621 157.354 26.8066 158.59 26.0957V20.0908H154.299V18.9482H159.847V26.7305ZM171.184 28V9.79492H175.741C178.763 9.79492 181.061 10.5482 182.635 12.0547C184.209 13.5612 184.996 15.7575 184.996 18.6436C184.996 21.4196 184.15 23.6751 182.457 25.4102C180.773 27.1367 178.445 28 175.475 28H171.184ZM172.44 10.9502V26.8574H175.297C177.997 26.8574 180.07 26.1592 181.518 24.7627C182.965 23.3577 183.688 21.335 183.688 18.6943C183.688 13.5316 180.976 10.9502 175.551 10.9502H172.44ZM196.193 28.3174C193.62 28.3174 191.568 27.4626 190.036 25.7529C188.513 24.0433 187.751 21.8216 187.751 19.0879C187.751 16.1849 188.534 13.8617 190.1 12.1182C191.674 10.3662 193.819 9.49023 196.536 9.49023C198.991 9.49023 200.975 10.3324 202.49 12.0166C204.014 13.6924 204.775 15.8929 204.775 18.6182C204.775 21.6312 203.997 24.001 202.439 25.7275C200.882 27.4541 198.8 28.3174 196.193 28.3174ZM196.32 10.6328C194.204 10.6328 192.461 11.3988 191.09 12.9307C189.727 14.4626 189.046 16.4684 189.046 18.9482C189.046 21.4535 189.693 23.4508 190.988 24.9404C192.283 26.4215 194.01 27.1621 196.168 27.1621C198.419 27.1621 200.201 26.43 201.513 24.9658C202.825 23.4932 203.48 21.445 203.48 18.8213C203.48 16.2484 202.837 14.2425 201.551 12.8037C200.273 11.3564 198.529 10.6328 196.32 10.6328ZM207.937 27.3525V25.918C209.24 26.7474 210.56 27.1621 211.897 27.1621C213.319 27.1621 214.398 26.8701 215.135 26.2861C215.871 25.6937 216.239 24.8685 216.239 23.8105C216.239 22.8796 215.99 22.139 215.49 21.5889C214.999 21.0303 213.929 20.2728 212.278 19.3164C210.433 18.2415 209.265 17.3444 208.774 16.625C208.284 15.8971 208.038 15.0592 208.038 14.1113C208.038 12.8249 208.537 11.7331 209.536 10.8359C210.535 9.9388 211.868 9.49023 213.535 9.49023C214.618 9.49023 215.702 9.6722 216.785 10.0361V11.3564C215.719 10.874 214.58 10.6328 213.37 10.6328C212.134 10.6328 211.153 10.946 210.425 11.5723C209.705 12.1986 209.346 12.9941 209.346 13.959C209.346 14.89 209.591 15.6305 210.082 16.1807C210.581 16.7308 211.652 17.4798 213.294 18.4277C214.995 19.3926 216.125 20.2516 216.684 21.0049C217.251 21.7497 217.534 22.6087 217.534 23.582C217.534 24.9785 217.048 26.1169 216.074 26.9971C215.109 27.8773 213.743 28.3174 211.974 28.3174C211.347 28.3174 210.624 28.2201 209.803 28.0254C208.99 27.8307 208.368 27.6064 207.937 27.3525Z" fill="#1B1F45"/>
<path d="M20.5889 67H15.9727L7.604 54.2417C7.11312 53.4959 6.77327 52.9342 6.58447 52.5566H6.52783C6.60335 53.2741 6.64111 54.3691 6.64111 55.8418V67H2.32227V46.6943H7.25L15.3071 59.0562C15.6753 59.6131 16.0151 60.1654 16.3267 60.7129H16.3833C16.3078 60.2409 16.27 59.311 16.27 57.9233V46.6943H20.5889V67ZM33.8145 67.354C30.9069 67.354 28.5374 66.41 26.7061 64.522C24.8747 62.6245 23.959 60.1559 23.959 57.1162C23.959 53.9066 24.8888 51.3105 26.7485 49.3281C28.6082 47.3457 31.0721 46.3545 34.1401 46.3545C37.0382 46.3545 39.3794 47.3032 41.1636 49.2007C42.9572 51.0981 43.854 53.5998 43.854 56.7056C43.854 59.8963 42.9242 62.4688 41.0645 64.4229C39.2142 66.377 36.7975 67.354 33.8145 67.354ZM34.0127 50.291C32.4079 50.291 31.1335 50.8952 30.1895 52.1035C29.2454 53.3024 28.7734 54.8931 28.7734 56.8755C28.7734 58.8862 29.2454 60.4769 30.1895 61.6475C31.1335 62.818 32.3701 63.4033 33.8994 63.4033C35.4759 63.4033 36.7267 62.8369 37.6519 61.7041C38.577 60.5618 39.0396 58.9806 39.0396 56.9604C39.0396 54.8553 38.5911 53.2174 37.6943 52.0469C36.7975 50.8763 35.5703 50.291 34.0127 50.291ZM64.1455 46.6943L57.1504 67H51.9678L45.0576 46.6943H49.9854L54.2192 60.8262C54.4458 61.5908 54.5827 62.2658 54.6299 62.8511H54.7148C54.7809 62.2186 54.9272 61.5247 55.1538 60.7695L59.3594 46.6943H64.1455ZM75.1055 67.354C72.1979 67.354 69.8285 66.41 67.9971 64.522C66.1657 62.6245 65.25 60.1559 65.25 57.1162C65.25 53.9066 66.1799 51.3105 68.0396 49.3281C69.8993 47.3457 72.3631 46.3545 75.4312 46.3545C78.3293 46.3545 80.6704 47.3032 82.4546 49.2007C84.2482 51.0981 85.145 53.5998 85.145 56.7056C85.145 59.8963 84.2152 62.4688 82.3555 64.4229C80.5052 66.377 78.0885 67.354 75.1055 67.354ZM75.3037 50.291C73.6989 50.291 72.4245 50.8952 71.4805 52.1035C70.5365 53.3024 70.0645 54.8931 70.0645 56.8755C70.0645 58.8862 70.5365 60.4769 71.4805 61.6475C72.4245 62.818 73.6611 63.4033 75.1904 63.4033C76.7669 63.4033 78.0177 62.8369 78.9429 61.7041C79.868 60.5618 80.3306 58.9806 80.3306 56.9604C80.3306 54.8553 79.8822 53.2174 78.9854 52.0469C78.0885 50.8763 76.8613 50.291 75.3037 50.291ZM87.5947 66.2212V61.6899C88.416 62.3791 89.3081 62.8983 90.271 63.2476C91.2339 63.5874 92.2062 63.7573 93.188 63.7573C93.7638 63.7573 94.2642 63.7054 94.689 63.6016C95.1232 63.4977 95.4819 63.3561 95.7651 63.1768C96.0578 62.988 96.2749 62.7708 96.4165 62.5254C96.5581 62.2705 96.6289 61.9967 96.6289 61.7041C96.6289 61.3076 96.5156 60.9536 96.2891 60.6421C96.0625 60.3306 95.751 60.0426 95.3545 59.7783C94.9674 59.514 94.5049 59.2591 93.9668 59.0137C93.4287 58.7682 92.8481 58.5181 92.2251 58.2632C90.6392 57.6024 89.4544 56.7952 88.6709 55.8418C87.8968 54.8883 87.5098 53.7367 87.5098 52.3867C87.5098 51.3294 87.7222 50.4232 88.147 49.668C88.5718 48.9033 89.1476 48.2756 89.8745 47.7847C90.6108 47.2938 91.4604 46.9351 92.4233 46.7085C93.3862 46.4725 94.4058 46.3545 95.4819 46.3545C96.5392 46.3545 97.4738 46.4206 98.2856 46.5527C99.1069 46.6755 99.8621 46.869 100.551 47.1333V51.3672C100.211 51.1312 99.8385 50.9235 99.4326 50.7441C99.0361 50.5648 98.6255 50.4185 98.2007 50.3052C97.7759 50.1825 97.3511 50.0928 96.9263 50.0361C96.5109 49.9795 96.1144 49.9512 95.7368 49.9512C95.2176 49.9512 94.7456 50.0031 94.3208 50.1069C93.896 50.2013 93.5373 50.3382 93.2446 50.5176C92.952 50.6969 92.7254 50.9141 92.5649 51.1689C92.4045 51.4144 92.3242 51.6929 92.3242 52.0044C92.3242 52.3442 92.4139 52.651 92.5933 52.9248C92.7726 53.1891 93.0275 53.444 93.3579 53.6895C93.6883 53.9255 94.0895 54.1615 94.5615 54.3975C95.0335 54.624 95.5669 54.86 96.1616 55.1055C96.9735 55.4453 97.7004 55.8088 98.3423 56.1958C98.9937 56.5734 99.5506 57.0029 100.013 57.4844C100.476 57.9658 100.83 58.5181 101.075 59.1411C101.321 59.7547 101.443 60.4722 101.443 61.2935C101.443 62.4263 101.226 63.3797 100.792 64.1538C100.367 64.9185 99.7866 65.5415 99.0503 66.0229C98.314 66.495 97.4549 66.8348 96.4731 67.0425C95.5008 67.2502 94.4718 67.354 93.3862 67.354C92.2723 67.354 91.2103 67.2596 90.2002 67.0708C89.1995 66.882 88.3311 66.5988 87.5947 66.2212ZM124.893 67H112.8V46.6943H117.374V63.29H124.893V67ZM133.913 46.6943V50.2344H132.213V63.46H133.913V67H125.94V63.46H127.64V50.2344H125.94V46.6943H133.913ZM134.536 40.2373L130.104 44.811H126.875L130.557 40.2373H134.536ZM136.844 67V46.6943H144.037C151.249 46.6943 154.855 49.9937 154.855 56.5923C154.855 59.7547 153.869 62.2799 151.896 64.168C149.932 66.056 147.313 67 144.037 67H136.844ZM141.417 50.4185V63.29H143.683C145.666 63.29 147.218 62.6953 148.342 61.5059C149.475 60.3164 150.041 58.6974 150.041 56.6489C150.041 54.7137 149.479 53.1938 148.356 52.0894C147.242 50.9754 145.675 50.4185 143.655 50.4185H141.417ZM170.403 67H158.226V46.6943H169.936V50.4185H162.799V54.9355H169.44V58.6455H162.799V63.29H170.403V67ZM190.695 67H185.441L182.284 61.7749C182.048 61.3784 181.821 61.0244 181.604 60.7129C181.387 60.4014 181.165 60.137 180.938 59.9199C180.721 59.6934 180.49 59.5234 180.245 59.4102C180.009 59.2874 179.749 59.2261 179.466 59.2261H178.234V67H173.66V46.6943H180.91C185.838 46.6943 188.302 48.5352 188.302 52.2168C188.302 52.9248 188.193 53.5809 187.976 54.1851C187.759 54.7798 187.452 55.3179 187.056 55.7993C186.659 56.2808 186.178 56.6961 185.611 57.0454C185.054 57.3947 184.431 57.6685 183.742 57.8667V57.9233C184.044 58.0177 184.337 58.1735 184.62 58.3906C184.903 58.5983 185.177 58.8438 185.441 59.127C185.706 59.4102 185.956 59.717 186.192 60.0474C186.437 60.3683 186.659 60.6846 186.857 60.9961L190.695 67ZM178.234 50.1211V55.771H180.216C181.198 55.771 181.986 55.4878 182.581 54.9214C183.185 54.3455 183.487 53.6328 183.487 52.7832C183.487 51.0085 182.425 50.1211 180.301 50.1211H178.234ZM204.784 67H192.606V46.6943H204.317V50.4185H197.18V54.9355H203.821V58.6455H197.18V63.29H204.784V67ZM207.106 66.2212V61.6899C207.928 62.3791 208.82 62.8983 209.783 63.2476C210.746 63.5874 211.718 63.7573 212.7 63.7573C213.276 63.7573 213.776 63.7054 214.201 63.6016C214.635 63.4977 214.994 63.3561 215.277 63.1768C215.569 62.988 215.787 62.7708 215.928 62.5254C216.07 62.2705 216.141 61.9967 216.141 61.7041C216.141 61.3076 216.027 60.9536 215.801 60.6421C215.574 60.3306 215.263 60.0426 214.866 59.7783C214.479 59.514 214.017 59.2591 213.479 59.0137C212.94 58.7682 212.36 58.5181 211.737 58.2632C210.151 57.6024 208.966 56.7952 208.183 55.8418C207.409 54.8883 207.021 53.7367 207.021 52.3867C207.021 51.3294 207.234 50.4232 207.659 49.668C208.083 48.9033 208.659 48.2756 209.386 47.7847C210.123 47.2938 210.972 46.9351 211.935 46.7085C212.898 46.4725 213.917 46.3545 214.994 46.3545C216.051 46.3545 216.986 46.4206 217.797 46.5527C218.619 46.6755 219.374 46.869 220.063 47.1333V51.3672C219.723 51.1312 219.35 50.9235 218.944 50.7441C218.548 50.5648 218.137 50.4185 217.712 50.3052C217.288 50.1825 216.863 50.0928 216.438 50.0361C216.023 49.9795 215.626 49.9512 215.249 49.9512C214.729 49.9512 214.257 50.0031 213.833 50.1069C213.408 50.2013 213.049 50.3382 212.756 50.5176C212.464 50.6969 212.237 50.9141 212.077 51.1689C211.916 51.4144 211.836 51.6929 211.836 52.0044C211.836 52.3442 211.926 52.651 212.105 52.9248C212.284 53.1891 212.539 53.444 212.87 53.6895C213.2 53.9255 213.601 54.1615 214.073 54.3975C214.545 54.624 215.079 54.86 215.673 55.1055C216.485 55.4453 217.212 55.8088 217.854 56.1958C218.505 56.5734 219.062 57.0029 219.525 57.4844C219.987 57.9658 220.341 58.5181 220.587 59.1411C220.832 59.7547 220.955 60.4722 220.955 61.2935C220.955 62.4263 220.738 63.3797 220.304 64.1538C219.879 64.9185 219.298 65.5415 218.562 66.0229C217.826 66.495 216.967 66.8348 215.985 67.0425C215.013 67.2502 213.984 67.354 212.898 67.354C211.784 67.354 210.722 67.2596 209.712 67.0708C208.711 66.882 207.843 66.5988 207.106 66.2212Z" fill="#1B1F45"/>
</svg>
