<svg width="447" height="148" viewBox="0 0 447 148" fill="none" xmlns="http://www.w3.org/2000/svg">
<path d="M20.0303 57.647C14.7855 57.647 10.6017 55.9045 7.479 52.4194C4.37354 48.9344 2.8208 44.4056 2.8208 38.833C2.8208 32.9154 4.41667 28.1795 7.6084 24.6255C10.8174 21.0542 15.1909 19.2686 20.729 19.2686C25.7323 19.2686 29.778 20.9852 32.8662 24.4185C35.9717 27.8345 37.5244 32.3201 37.5244 37.8755C37.5244 44.0174 35.9372 48.8481 32.7627 52.3677C29.5882 55.8872 25.3441 57.647 20.0303 57.647ZM20.2891 21.5977C15.9759 21.5977 12.4219 23.159 9.62695 26.2817C6.84928 29.4045 5.46045 33.4933 5.46045 38.5483C5.46045 43.6551 6.78027 47.7267 9.41992 50.7632C12.0596 53.7824 15.5791 55.292 19.9785 55.292C24.5677 55.292 28.1994 53.7996 30.8735 50.8149C33.5477 47.813 34.8848 43.6379 34.8848 38.2896C34.8848 33.0448 33.5736 28.9559 30.9512 26.0229C28.346 23.0728 24.792 21.5977 20.2891 21.5977ZM71.374 57L49.2734 27.0063C48.8249 26.4025 48.4281 25.7987 48.083 25.1948L47.7466 24.6772H47.6431C47.6776 25.1258 47.6948 25.6693 47.6948 26.3076V57H45.1328V19.8896H47.0996L69.0449 49.6245C69.528 50.2801 70.0542 51.0737 70.6235 52.0054H70.7529C70.6667 50.7977 70.6235 49.7625 70.6235 48.8999V19.8896H73.1855V57H71.374ZM82.709 57V19.8896H92.4653C95.381 19.8896 97.7015 20.6746 99.4268 22.2446C101.152 23.8146 102.015 25.8936 102.015 28.4814C102.015 30.638 101.437 32.5099 100.281 34.0972C99.1421 35.6672 97.5462 36.7799 95.4932 37.4355V37.5391C98.0638 37.7806 100.091 38.7036 101.575 40.3081C103.058 41.8953 103.8 43.9225 103.8 46.3896C103.8 49.5124 102.791 52.0658 100.772 54.0498C98.7539 56.0166 96.0539 57 92.6724 57H82.709ZM85.271 22.2446V36.6074H90.4468C93.1382 36.6074 95.2948 35.9173 96.9165 34.5371C98.5382 33.1569 99.3491 31.285 99.3491 28.9214C99.3491 24.4702 96.7181 22.2446 91.4561 22.2446H85.271ZM85.271 38.9365V54.6709H92.1548C95.0705 54.6709 97.2961 53.9722 98.8315 52.5747C100.384 51.1772 101.161 49.1932 101.161 46.6226C101.161 41.4985 97.6842 38.9365 90.7314 38.9365H85.271ZM126.807 57.647C121.562 57.647 117.378 55.9045 114.255 52.4194C111.15 48.9344 109.597 44.4056 109.597 38.833C109.597 32.9154 111.193 28.1795 114.385 24.6255C117.594 21.0542 121.967 19.2686 127.505 19.2686C132.509 19.2686 136.554 20.9852 139.643 24.4185C142.748 27.8345 144.301 32.3201 144.301 37.8755C144.301 44.0174 142.714 48.8481 139.539 52.3677C136.365 55.8872 132.12 57.647 126.807 57.647ZM127.065 21.5977C122.752 21.5977 119.198 23.159 116.403 26.2817C113.626 29.4045 112.237 33.4933 112.237 38.5483C112.237 43.6551 113.557 47.7267 116.196 50.7632C118.836 53.7824 122.355 55.292 126.755 55.292C131.344 55.292 134.976 53.7996 137.65 50.8149C140.324 47.813 141.661 43.6379 141.661 38.2896C141.661 33.0448 140.35 28.9559 137.728 26.0229C135.122 23.0728 131.568 21.5977 127.065 21.5977ZM174.993 57L170.749 45.458H154.652L150.408 57H147.587L161.588 19.8896H164.021L177.866 57H174.993ZM163.606 25.9453C163.417 25.4277 163.261 24.9188 163.141 24.4185C163.02 23.9871 162.89 23.5558 162.752 23.1245H162.649C162.356 24.2632 162.071 25.1862 161.795 25.8936L155.558 43.103H169.869L163.606 25.9453ZM203.149 57L198.207 46.1309C197.189 43.888 196.171 42.387 195.153 41.6279C194.135 40.8516 192.858 40.4634 191.323 40.4634H186.716V57H184.154V19.8896H194.454C197.732 19.8896 200.303 20.7782 202.166 22.5552C204.047 24.3149 204.987 26.644 204.987 29.5425C204.987 32.2166 204.219 34.4508 202.684 36.2451C201.148 38.0394 199 39.1953 196.24 39.7129V39.8164C197.706 40.403 199.138 42.1886 200.536 45.1733L206.048 57H203.149ZM186.716 22.2446V38.1343H193.108C195.938 38.1343 198.181 37.3924 199.837 35.9087C201.51 34.425 202.347 32.3892 202.347 29.8013C202.347 27.4377 201.597 25.5916 200.096 24.2632C198.595 22.9175 196.447 22.2446 193.652 22.2446H186.716ZM213.604 57V19.8896H222.895C229.054 19.8896 233.738 21.4251 236.947 24.4961C240.156 27.5671 241.761 32.0441 241.761 37.9272C241.761 43.5861 240.035 48.1839 236.585 51.7207C233.152 55.2402 228.407 57 222.352 57H213.604ZM216.167 22.2446V54.6709H221.989C227.493 54.6709 231.72 53.2476 234.67 50.4009C237.62 47.5369 239.095 43.4136 239.095 38.0308C239.095 27.5067 233.566 22.2446 222.507 22.2446H216.167ZM249.317 57V19.8896H251.879V57H249.317ZM287.67 57L265.569 27.0063C265.121 26.4025 264.724 25.7987 264.379 25.1948L264.042 24.6772H263.939C263.973 25.1258 263.991 25.6693 263.991 26.3076V57H261.429V19.8896H263.396L285.341 49.6245C285.824 50.2801 286.35 51.0737 286.919 52.0054H287.049C286.963 50.7977 286.919 49.7625 286.919 48.8999V19.8896H289.481V57H287.67ZM325.841 54.4121C322.011 56.5687 318.069 57.647 314.015 57.647C308.96 57.647 304.871 55.9303 301.748 52.4971C298.625 49.0638 297.064 44.5609 297.064 38.9883C297.064 33.3639 298.746 28.6712 302.11 24.9102C305.475 21.1491 309.969 19.2686 315.593 19.2686C318.854 19.2686 322.02 19.9242 325.091 21.2354V24.0303C321.727 22.4085 318.44 21.5977 315.231 21.5977C310.556 21.5977 306.794 23.1935 303.948 26.3853C301.118 29.577 299.704 33.6486 299.704 38.6001C299.704 43.8104 301.032 47.8993 303.689 50.8667C306.363 53.8169 309.96 55.292 314.48 55.292C317.827 55.292 320.76 54.5674 323.279 53.1182V40.8774H314.532V38.5483H325.841V54.4121ZM348.951 57V19.8896H358.242C364.401 19.8896 369.085 21.4251 372.294 24.4961C375.503 27.5671 377.107 32.0441 377.107 37.9272C377.107 43.5861 375.382 48.1839 371.932 51.7207C368.498 55.2402 363.754 57 357.698 57H348.951ZM351.513 22.2446V54.6709H357.336C362.84 54.6709 367.066 53.2476 370.017 50.4009C372.967 47.5369 374.442 43.4136 374.442 38.0308C374.442 27.5067 368.912 22.2446 357.854 22.2446H351.513ZM399.933 57.647C394.688 57.647 390.504 55.9045 387.381 52.4194C384.276 48.9344 382.723 44.4056 382.723 38.833C382.723 32.9154 384.319 28.1795 387.511 24.6255C390.72 21.0542 395.093 19.2686 400.631 19.2686C405.635 19.2686 409.68 20.9852 412.769 24.4185C415.874 27.8345 417.427 32.3201 417.427 37.8755C417.427 44.0174 415.84 48.8481 412.665 52.3677C409.491 55.8872 405.246 57.647 399.933 57.647ZM400.191 21.5977C395.878 21.5977 392.324 23.159 389.529 26.2817C386.752 29.4045 385.363 33.4933 385.363 38.5483C385.363 43.6551 386.683 47.7267 389.322 50.7632C391.962 53.7824 395.481 55.292 399.881 55.292C404.47 55.292 408.102 53.7996 410.776 50.8149C413.45 47.813 414.787 43.6379 414.787 38.2896C414.787 33.0448 413.476 28.9559 410.854 26.0229C408.248 23.0728 404.694 21.5977 400.191 21.5977ZM423.871 55.6802V52.7559C426.528 54.4466 429.219 55.292 431.945 55.292C434.843 55.292 437.043 54.6968 438.544 53.5063C440.045 52.2987 440.795 50.6165 440.795 48.46C440.795 46.5622 440.286 45.0526 439.269 43.9312C438.268 42.7925 436.085 41.2484 432.721 39.2988C428.96 37.1077 426.579 35.279 425.579 33.8125C424.578 32.3288 424.078 30.6208 424.078 28.6885C424.078 26.0661 425.096 23.8405 427.131 22.0117C429.167 20.1829 431.884 19.2686 435.283 19.2686C437.492 19.2686 439.7 19.6395 441.908 20.3813V23.0728C439.734 22.0894 437.414 21.5977 434.947 21.5977C432.428 21.5977 430.427 22.236 428.943 23.5127C427.476 24.7894 426.743 26.4111 426.743 28.3779C426.743 30.2757 427.243 31.7853 428.244 32.9067C429.262 34.0282 431.444 35.555 434.792 37.4873C438.259 39.4541 440.562 41.2052 441.701 42.7407C442.857 44.259 443.435 46.0101 443.435 47.9941C443.435 50.8408 442.443 53.1613 440.459 54.9556C438.492 56.7498 435.706 57.647 432.1 57.647C430.823 57.647 429.348 57.4486 427.675 57.0518C426.019 56.6549 424.75 56.1978 423.871 55.6802Z" fill="#1B1F45"/>
<path d="M41.1777 134H31.9453L15.208 108.483C14.2262 106.992 13.5465 105.868 13.1689 105.113H13.0557C13.2067 106.548 13.2822 108.738 13.2822 111.684V134H4.64453V93.3887H14.5L30.6143 118.112C31.3506 119.226 32.0303 120.331 32.6533 121.426H32.7666C32.6156 120.482 32.54 118.622 32.54 115.847V93.3887H41.1777V134ZM67.6289 134.708C61.8138 134.708 57.0749 132.82 53.4121 129.044C49.7493 125.249 47.918 120.312 47.918 114.232C47.918 107.813 49.7777 102.621 53.4971 98.6562C57.2165 94.6914 62.1442 92.709 68.2803 92.709C74.0765 92.709 78.7588 94.6064 82.3271 98.4014C85.9144 102.196 87.708 107.2 87.708 113.411C87.708 119.793 85.8483 124.938 82.1289 128.846C78.4284 132.754 73.5951 134.708 67.6289 134.708ZM68.0254 100.582C64.8158 100.582 62.2669 101.79 60.3789 104.207C58.4909 106.605 57.5469 109.786 57.5469 113.751C57.5469 117.772 58.4909 120.954 60.3789 123.295C62.2669 125.636 64.7402 126.807 67.7988 126.807C70.9518 126.807 73.4535 125.674 75.3037 123.408C77.154 121.124 78.0791 117.961 78.0791 113.921C78.0791 109.711 77.1823 106.435 75.3887 104.094C73.5951 101.753 71.1406 100.582 68.0254 100.582ZM128.291 93.3887L114.301 134H103.936L90.1152 93.3887H99.9707L108.438 121.652C108.892 123.182 109.165 124.532 109.26 125.702H109.43C109.562 124.437 109.854 123.049 110.308 121.539L118.719 93.3887H128.291ZM150.211 134.708C144.396 134.708 139.657 132.82 135.994 129.044C132.331 125.249 130.5 120.312 130.5 114.232C130.5 107.813 132.36 102.621 136.079 98.6562C139.799 94.6914 144.726 92.709 150.862 92.709C156.659 92.709 161.341 94.6064 164.909 98.4014C168.496 102.196 170.29 107.2 170.29 113.411C170.29 119.793 168.43 124.938 164.711 128.846C161.01 132.754 156.177 134.708 150.211 134.708ZM150.607 100.582C147.398 100.582 144.849 101.79 142.961 104.207C141.073 106.605 140.129 109.786 140.129 113.751C140.129 117.772 141.073 120.954 142.961 123.295C144.849 125.636 147.322 126.807 150.381 126.807C153.534 126.807 156.035 125.674 157.886 123.408C159.736 121.124 160.661 117.961 160.661 113.921C160.661 109.711 159.764 106.435 157.971 104.094C156.177 101.753 153.723 100.582 150.607 100.582ZM175.189 132.442V123.38C176.832 124.758 178.616 125.797 180.542 126.495C182.468 127.175 184.412 127.515 186.376 127.515C187.528 127.515 188.528 127.411 189.378 127.203C190.246 126.995 190.964 126.712 191.53 126.354C192.116 125.976 192.55 125.542 192.833 125.051C193.116 124.541 193.258 123.993 193.258 123.408C193.258 122.615 193.031 121.907 192.578 121.284C192.125 120.661 191.502 120.085 190.709 119.557C189.935 119.028 189.01 118.518 187.934 118.027C186.857 117.536 185.696 117.036 184.45 116.526C181.278 115.205 178.909 113.59 177.342 111.684C175.794 109.777 175.02 107.473 175.02 104.773C175.02 102.659 175.444 100.846 176.294 99.3359C177.144 97.8066 178.295 96.5511 179.749 95.5693C181.222 94.5876 182.921 93.8701 184.847 93.417C186.772 92.945 188.812 92.709 190.964 92.709C193.078 92.709 194.948 92.8411 196.571 93.1055C198.214 93.3509 199.724 93.738 201.103 94.2666V102.734C200.423 102.262 199.677 101.847 198.865 101.488C198.072 101.13 197.251 100.837 196.401 100.61C195.552 100.365 194.702 100.186 193.853 100.072C193.022 99.959 192.229 99.9023 191.474 99.9023C190.435 99.9023 189.491 100.006 188.642 100.214C187.792 100.403 187.075 100.676 186.489 101.035C185.904 101.394 185.451 101.828 185.13 102.338C184.809 102.829 184.648 103.386 184.648 104.009C184.648 104.688 184.828 105.302 185.187 105.85C185.545 106.378 186.055 106.888 186.716 107.379C187.377 107.851 188.179 108.323 189.123 108.795C190.067 109.248 191.134 109.72 192.323 110.211C193.947 110.891 195.401 111.618 196.685 112.392C197.987 113.147 199.101 114.006 200.026 114.969C200.951 115.932 201.66 117.036 202.15 118.282C202.641 119.509 202.887 120.944 202.887 122.587C202.887 124.853 202.452 126.759 201.584 128.308C200.734 129.837 199.573 131.083 198.101 132.046C196.628 132.99 194.91 133.67 192.946 134.085C191.002 134.5 188.944 134.708 186.772 134.708C184.545 134.708 182.421 134.519 180.4 134.142C178.399 133.764 176.662 133.198 175.189 132.442ZM249.785 134H225.6V93.3887H234.747V126.58H249.785V134ZM267.825 93.3887V100.469H264.427V126.92H267.825V134H251.881V126.92H255.279V100.469H251.881V93.3887H267.825ZM269.071 80.4746L260.207 89.6221H253.75L261.113 80.4746H269.071ZM273.688 134V93.3887H288.074C302.499 93.3887 309.711 99.9873 309.711 113.185C309.711 119.509 307.738 124.56 303.792 128.336C299.865 132.112 294.626 134 288.074 134H273.688ZM282.835 100.837V126.58H287.366C291.331 126.58 294.437 125.391 296.684 123.012C298.949 120.633 300.082 117.395 300.082 113.298C300.082 109.427 298.959 106.388 296.712 104.179C294.484 101.951 291.35 100.837 287.31 100.837H282.835ZM340.807 134H316.451V93.3887H339.872V100.837H325.599V109.871H338.881V117.291H325.599V126.58H340.807V134ZM381.39 134H370.883L364.567 123.55C364.095 122.757 363.642 122.049 363.208 121.426C362.774 120.803 362.33 120.274 361.877 119.84C361.443 119.387 360.98 119.047 360.489 118.82C360.017 118.575 359.498 118.452 358.932 118.452H356.468V134H347.32V93.3887H361.82C371.676 93.3887 376.604 97.0703 376.604 104.434C376.604 105.85 376.386 107.162 375.952 108.37C375.518 109.56 374.904 110.636 374.111 111.599C373.318 112.562 372.355 113.392 371.223 114.091C370.109 114.789 368.863 115.337 367.484 115.733V115.847C368.089 116.035 368.674 116.347 369.24 116.781C369.807 117.197 370.354 117.688 370.883 118.254C371.411 118.82 371.912 119.434 372.384 120.095C372.875 120.737 373.318 121.369 373.715 121.992L381.39 134ZM356.468 100.242V111.542H360.433C362.396 111.542 363.973 110.976 365.162 109.843C366.37 108.691 366.975 107.266 366.975 105.566C366.975 102.017 364.851 100.242 360.603 100.242H356.468ZM409.568 134H385.213V93.3887H408.634V100.837H394.36V109.871H407.643V117.291H394.36V126.58H409.568V134ZM414.213 132.442V123.38C415.855 124.758 417.64 125.797 419.565 126.495C421.491 127.175 423.436 127.515 425.399 127.515C426.551 127.515 427.552 127.411 428.401 127.203C429.27 126.995 429.987 126.712 430.554 126.354C431.139 125.976 431.573 125.542 431.856 125.051C432.14 124.541 432.281 123.993 432.281 123.408C432.281 122.615 432.055 121.907 431.602 121.284C431.148 120.661 430.525 120.085 429.732 119.557C428.958 119.028 428.033 118.518 426.957 118.027C425.881 117.536 424.72 117.036 423.474 116.526C420.302 115.205 417.932 113.59 416.365 111.684C414.817 109.777 414.043 107.473 414.043 104.773C414.043 102.659 414.468 100.846 415.317 99.3359C416.167 97.8066 417.319 96.5511 418.772 95.5693C420.245 94.5876 421.944 93.8701 423.87 93.417C425.796 92.945 427.835 92.709 429.987 92.709C432.102 92.709 433.971 92.8411 435.595 93.1055C437.237 93.3509 438.748 93.738 440.126 94.2666V102.734C439.446 102.262 438.701 101.847 437.889 101.488C437.096 101.13 436.274 100.837 435.425 100.61C434.575 100.365 433.726 100.186 432.876 100.072C432.045 99.959 431.252 99.9023 430.497 99.9023C429.459 99.9023 428.515 100.006 427.665 100.214C426.815 100.403 426.098 100.676 425.513 101.035C424.927 101.394 424.474 101.828 424.153 102.338C423.832 102.829 423.672 103.386 423.672 104.009C423.672 104.688 423.851 105.302 424.21 105.85C424.569 106.378 425.078 106.888 425.739 107.379C426.4 107.851 427.202 108.323 428.146 108.795C429.09 109.248 430.157 109.72 431.347 110.211C432.97 110.891 434.424 111.618 435.708 112.392C437.011 113.147 438.125 114.006 439.05 114.969C439.975 115.932 440.683 117.036 441.174 118.282C441.665 119.509 441.91 120.944 441.91 122.587C441.91 124.853 441.476 126.759 440.607 128.308C439.758 129.837 438.597 131.083 437.124 132.046C435.651 132.99 433.933 133.67 431.97 134.085C430.025 134.5 427.967 134.708 425.796 134.708C423.568 134.708 421.444 134.519 419.424 134.142C417.423 133.764 415.686 133.198 414.213 132.442Z" fill="#1B1F45"/>
</svg>
