<svg width="62" height="63" viewBox="0 0 62 63" fill="none" xmlns="http://www.w3.org/2000/svg">
<path d="M31 0.75C48.0742 0.75 62 14.6758 62 31.75C62 48.9453 48.0742 62.75 31 62.75C13.8047 62.75 0 48.9453 0 31.75C0 14.6758 13.8047 0.75 31 0.75ZM31 49.1875C33.0586 49.1875 34.875 47.4922 34.875 45.3125C34.875 43.1328 33.0586 41.4375 31 41.4375C28.6992 41.4375 27.125 43.1328 27.125 45.3125C27.125 47.4922 28.8203 49.1875 31 49.1875ZM39.3555 31.9922C42.0195 30.418 43.5938 27.6328 43.5938 24.7266C43.5938 20.0039 39.8398 16.25 34.875 16.25H28.6992C24.0977 16.25 20.3438 20.0039 20.3438 24.7266C20.3438 26.3008 21.6758 27.6328 23.25 27.6328C24.8242 27.6328 26.1562 26.3008 26.1562 24.7266C26.1562 23.2734 27.2461 22.0625 28.8203 22.0625H34.9961C36.4492 22.0625 37.7812 23.2734 37.7812 24.7266C37.7812 25.6953 37.2969 26.543 36.4492 27.0273L29.5469 31.1445C28.5781 31.75 28.0938 32.7188 28.0938 33.6875V35.625C28.0938 37.1992 29.4258 38.5312 31 38.5312C32.5742 38.5312 33.9062 37.1992 33.9062 35.625V35.3828L39.3555 31.9922Z" fill="#1B1F45"/>
</svg>
