<?xml version="1.0" encoding="utf-8"?>
<!-- Generator: Adobe Illustrator 25.4.1, SVG Export Plug-In . SVG Version: 6.00 Build 0)  -->
<svg version="1.1" id="Layer_1" xmlns:serif="http://www.serif.com/"
	 xmlns="http://www.w3.org/2000/svg" xmlns:xlink="http://www.w3.org/1999/xlink" x="0px" y="0px" viewBox="0 0 1920 1080"
	 style="enable-background:new 0 0 1920 1080;" xml:space="preserve">
<style type="text/css">
	.st0{opacity:0.4;}
	.st1{opacity:0.53;}
	.st2{clip-path:url(#SVGID_00000021799561145893518320000009738383473185917063_);}
	.st3{fill:#FFFFFF;}
	.st4{opacity:0.33;}
	.st5{clip-path:url(#SVGID_00000012436369371536926170000001590869319052529575_);}
</style>
<g class="st0">
	<g class="st1">
		<g>
			<g>
				<defs>
					<rect id="SVGID_1_" x="-42.9" width="2168.5" height="309.7"/>
				</defs>
				<clipPath id="SVGID_00000015351030255270776260000017928125858046955438_">
					<use xlink:href="#SVGID_1_"  style="overflow:visible;"/>
				</clipPath>
				<g style="clip-path:url(#SVGID_00000015351030255270776260000017928125858046955438_);">
					<g transform="matrix(1,0,0,-1,-271.121,435.004)">
						<path class="st3" d="M1326.8,159.8c-18.9,0.8-37.9,3-57.2,6.4c-62.1,11.1-126.6,36-191.9,73.9c-62,36-120.4,79.4-176.9,121.4
							c-58.1,43.2-118.2,87.8-182.2,124.4c-163,93.2-317.3,77.7-459.7,47.1l-0.1,0.5c92.5,19.9,167.3,26.9,235.5,21.9
							c80-5.8,153.4-28.4,224.6-69c64-36.6,124.1-81.3,182.3-124.5c56.5-42,114.9-85.4,176.9-121.4c141.1-81.9,274-101.7,394.9-58.6
							c107.6,38.3,191.9,118,273.5,195c11.5,10.8,23.3,22,35,32.8c57.2,53.1,106.6,91.1,155.4,119.4
							c59.9,34.7,120.1,55.5,184.2,63.8c65.6,8.4,136,6.6,215.4-5.6c74.7-11.4,148.5-30.7,210.8-48.1
							c131.8-36.8,264.6-78.3,393.1-118.5c33.8-10.6,68.7-21.5,103.1-32.2c75.2-23.3,164.2-50.7,255-77.1
							c7.2-2.1,23.7-5.8,44.7-10.5c70.1-15.7,187.5-41.9,190.4-59.9l-0.5-0.1c-1.2,7.6-24.8,17.9-70.1,30.5
							c-38.6,10.8-85.6,21.3-119.9,28.9c-20.9,4.7-37.5,8.4-44.7,10.5c-90.8,26.4-179.8,53.8-255,77.1
							c-34.4,10.7-69.3,21.6-103.1,32.2c-128.4,40.2-261.2,81.7-393,118.5c-95,26.5-201.3,53.4-309.9,58.1
							c-38.6,1.7-77.5,0.6-116.2-4.4c-145.6-18.6-253.2-102.9-339.4-183c-11.7-10.8-23.5-22-35-32.8
							c-81.6-77.1-166-156.8-273.7-195.1C1426.4,164.8,1377.4,157.6,1326.8,159.8L1326.8,159.8z"/>
					</g>
					<g transform="matrix(1,0,0,-1,-272.302,419.353)">
						<path class="st3" d="M1310.6,164.9c-16.8,0.7-33.7,2.4-50.8,5c-62.8,9.5-127.3,31.6-191.9,65.6c-5.2,2.7-10.6,5.6-16,8.6
							c-60.3,33-118.1,72.8-173.9,111.4c-55.2,38.2-112.3,77.6-173.1,111.3c-85.3,47.6-169,66.6-248.3,70
							c-75.5,3.3-147.1-7.5-212.6-21.1l-0.1,0.5c91.9,19.1,166.9,25.4,236,19.9c79.8-6.3,153.5-28.9,225.3-68.9
							c60.8-33.7,117.9-73.2,173.1-111.4c55.8-38.6,113.5-78.4,173.8-111.4c5.4-3,10.8-5.8,16-8.6c137.4-72.3,273.9-89.6,394.9-50
							c104.7,34.3,186.6,108.1,265.8,179.4c12,10.8,24.3,21.9,36.5,32.7c3.2,2.9,6.4,5.7,9.5,8.4c54.4,47.3,101.4,81,148.1,106.1
							c57.1,30.7,114.3,48.7,175,55.2c52.3,5.6,108.8,4.7,173-2.6c59.5-6.8,117.5-18.1,171.3-29.3c24.4-5.1,50-10.7,83-18.3
							c75.7-17.4,153.2-36.2,236.8-57.4c77-19.5,160.8-42.9,256.3-71.4c98.3-29.4,179.8-54.2,256.5-77.8c8.3-2.6,26.2-6.8,48.9-12.2
							c33.8-8,80.1-19,117.4-30c44.4-13.1,67-23.4,69.2-31.5l-0.5-0.1c-4.8,18-118.3,45-186.1,61.1c-22.7,5.4-40.7,9.7-49,12.2
							c-76.7,23.7-158.2,48.4-256.4,77.8c-95.5,28.5-179.3,51.9-256.3,71.4c-83.6,21.2-161.1,40-236.8,57.4
							c-33,7.6-58.6,13.2-83,18.3c-105.3,22-227.5,44.3-344.2,31.9c-138.1-14.8-240.7-89.7-322.8-161.1c-3.1-2.7-6.3-5.5-9.6-8.4
							c-12.2-10.8-24.5-21.9-36.5-32.7c-79.2-71.4-161.2-145.2-266-179.6C1414.5,169.4,1363.3,162.6,1310.6,164.9L1310.6,164.9z"/>
					</g>
					<g transform="matrix(1,0,0,-1,-273.481,418.352)">
						<path class="st3" d="M1292.9,184.4c-92.2,4-174,32.2-234.8,60.9c-5.1,2.4-10.5,5-16,7.7c-65.7,32-125.9,70.7-189.6,111.6
							c-51.5,33-104.7,67.2-161.1,97.6c-135,73.4-273.2,88.6-462.2,50.8l-0.1,0.6c91.3,18.2,166.4,23.9,236.6,17.9
							c79.6-6.9,153.6-29.4,226-68.8c56.5-30.4,109.7-64.6,161.1-97.6c63.7-40.9,123.9-79.5,189.6-111.5c5.5-2.7,10.9-5.3,16-7.7
							c94.3-44.5,239.3-87.9,394.8-41.4C1555,235,1634.6,303,1711.5,368.8c12.4,10.6,25.2,21.6,37.8,32.1c3.1,2.6,6.3,5.2,9.4,7.8
							c53.7,44.2,99.8,75.5,145.1,98.6c56.1,28.5,112.1,44.8,171.1,49.8c106.1,9.1,215.5-9.7,321.2-27.9c8.2-1.4,16.5-2.8,24.6-4.2
							c27.5-4.7,53.7-9.3,82.6-14.5c95.1-17.1,164.8-30.2,233-43.7c79.6-15.8,166.1-37.1,257.1-63.2c97-28,181.4-53.7,257.9-78.5
							c9.3-3,28.4-7.8,52.5-13.9c70.3-17.7,176.5-44.3,183.3-63.1l-0.6-0.2c-2.9,8-25.8,18.7-67.9,31.7c-36.3,11.2-79.9,22.2-115,31
							c-24.1,6.1-43.2,10.9-52.5,13.9c-76.6,24.9-160.9,50.6-257.9,78.5c-91,26.1-177.5,47.4-257,63.2
							c-68.2,13.6-137.9,26.6-233,43.7c-28.9,5.1-55.1,9.8-82.6,14.5c-8.2,1.4-16.4,2.8-24.6,4.2c-105.7,18.2-215.1,36.9-321.1,27.9
							c-133.7-11.4-234.7-81.4-315.9-148.3c-3.1-2.5-6.2-5.1-9.4-7.8c-12.6-10.5-25.4-21.5-37.8-32.1
							c-77-65.8-156.6-133.9-258.6-164.4C1397.9,187.4,1343.8,182.2,1292.9,184.4L1292.9,184.4z"/>
					</g>
					<g transform="matrix(1,0,0,-1,-274.661,408.654)">
						<path class="st3" d="M1272.3,195.4c-10.7,0.5-21.5,1.2-32.3,2.3c-64.5,6.3-129,22.7-191.8,49c-5.1,2.1-10.3,4.3-16,6.8
							c-73,31.3-140.2,71.3-211.3,113.7c-45.8,27.3-93.3,55.5-143.2,81.8c-138.3,72.8-276.9,88.6-463.4,52.7l-0.1,0.6
							c90.4,17.4,165.8,22.4,237,15.7c79.3-7.5,153.4-29.8,226.8-68.5c50-26.3,97.4-54.5,143.2-81.8
							c71.1-42.4,138.3-82.4,211.2-113.7c5.7-2.5,11-4.7,16-6.8c92.4-38.6,235.9-75.7,394.8-32.7c99,26.7,176.3,89.1,251.1,149.4
							c12.8,10.3,26,20.9,39,31.1c3.1,2.4,6.2,4.8,9.2,7.2c53,41.1,98.2,70.1,142.2,91c55.1,26.3,109.8,40.8,167.3,44.5
							c89.3,5.7,182.4-8.2,272.4-21.6c24.7-3.7,50.3-7.5,74.9-10.7c24.4-3.2,53.3-7.1,82.2-10.7c18-2.3,36-4.6,53.4-6.8
							c59.8-7.6,116.3-14.7,175.8-23.3c80.4-11.5,167.1-30,257.9-55c95.7-26.6,180.6-52.5,259.4-79.2c10.3-3.5,31.2-9,55.4-15.5
							c68.5-18.2,172-45.6,180.7-64.8l-0.6-0.3c-8.6,18.9-111.9,46.3-180.3,64.5c-24.2,6.4-45.1,12-55.5,15.5
							c-78.8,26.8-163.7,52.7-259.4,79.2c-90.7,25-177.5,43.5-257.8,55c-59.5,8.5-116,15.7-175.8,23.3c-17.4,2.2-35.4,4.5-53.4,6.8
							c-28.9,3.6-57.7,7.5-82.2,10.7c-24.7,3.3-50.2,7.1-74.9,10.7c-90,13.4-183.1,27.2-272.3,21.6
							c-129.3-8.2-228.8-73.1-309.1-135.4c-3-2.3-6.1-4.7-9.2-7.2c-13-10.2-26.2-20.9-38.9-31.2c-74.8-60.4-152.2-122.8-251.3-149.5
							C1388.5,199,1331.1,192.8,1272.3,195.4L1272.3,195.4z"/>
					</g>
					<g transform="matrix(1,0,0,-1,-275.841,388.241)">
						<path class="st3" d="M1248.4,195.4c-6.1,0.3-12.2,0.6-18.3,1c-65.6,4.6-130.1,18.3-191.6,40.7c-5,1.8-10.2,3.7-16.1,5.9
							c-81.5,30.2-156.9,72-236.7,116.3c-39,21.6-79.4,44-121.6,65.6c-141.3,72.3-280.3,88.7-464.6,54.6l-0.1,0.7
							c43.5,8,83.3,13.1,121.4,15.5c40.8,2.5,78.8,1.9,116.2-1.9c78.9-8,153.4-30.3,227.5-68.3C706.6,404,747,381.6,786,360
							c79.8-44.3,155.2-86,236.6-116.3c5.8-2.2,11.1-4.1,16-5.9c127-46.2,267.3-54.8,394.8-24.1c96.2,23.1,171.3,80,244,134.9
							c13.1,9.9,26.6,20.1,39.9,29.9c3,2.2,6.1,4.4,9,6.6c53,38.5,96,64.3,139.2,83.5c54.1,24,107.5,36.8,163.5,39.1
							c76.6,3.2,157.3-7.9,235.3-18.6c37.6-5.1,76.5-10.5,113.6-14c27.8-2.6,55.3-5,81.7-6.9c30.4-2.3,60.4-4.3,89.4-6.3
							c44.1-3,89.7-6.1,136-10.1c80.3-6.9,167.4-22.7,258.7-46.8c93.2-24.8,181-51.8,260.9-80c11.3-4,32.9-10,57.9-17
							c70.9-19.8,168-46.9,178.6-66.6l-0.6-0.3c-10.5,19.5-111.4,47.7-178.2,66.3c-25,7-46.6,13-57.9,17
							c-79.9,28.2-167.7,55.1-260.9,79.9c-91.3,24.1-178.2,39.8-258.5,46.8c-46.3,4-91.9,7.1-136,10.1c-29,2-59,4-89.4,6.3
							c-26.4,1.9-53.9,4.3-81.7,6.9c-37.1,3.5-76,8.8-113.6,14c-78,10.7-158.6,21.7-235.2,18.6c-124.5-5.1-218.8-61.9-302.2-122.5
							c-2.9-2.1-6-4.3-9-6.5c-13.3-9.8-26.8-20-39.9-29.9c-72.7-55-148-111.9-244.3-135C1373.8,198.6,1311.5,192.7,1248.4,195.4
							L1248.4,195.4z"/>
					</g>
					<g transform="matrix(1,0,0,-1,-277.021,371.326)">
						<path class="st3" d="M1219,198.9c-65.7,2.9-130.2,13.7-190.3,32.3c-4.7,1.5-9.8,3-16.1,5c-92,28.9-177.7,73.3-268.5,120.4
							c-30.2,15.7-61.4,31.8-93.6,47.9C508,475.4,364.3,492.8,184.7,461l-0.1,0.8c87.9,15.6,165.8,19.4,238.1,11.5
							c78.6-8.5,153.2-30.8,228.2-68.1c32.2-16,63.4-32.2,93.6-47.9c90.8-47.1,176.5-91.6,268.4-120.4c6.3-2,11.4-3.6,16.1-5
							c122.2-37.8,262.5-43.3,394.9-15.5c93.4,19.6,166.4,71,237.1,120.7c13.3,9.4,27.1,19.1,40.7,28.3c2.9,2,5.8,3.9,8.6,5.8
							l0.2,0.1c82.9,55.7,176.2,107.5,295.8,109.8c66.7,1.2,137.4-8.1,205.8-17.2c48-6.4,97.7-12.9,144.6-15.6
							c27.3-1.6,53.9-2.6,81.3-3.1c34.8-0.8,68.9-1,101.8-1.1c38.8-0.2,78.9-0.4,119.8-1.6c80-2.3,167.3-15.3,259.5-38.6
							c92.1-23.6,180.4-50.7,262.4-80.7c12.2-4.4,34.3-10.9,59.8-18.4c69.4-20.4,164.5-48.3,177-68.5l-0.6-0.4
							c-12.4,20-107.3,47.9-176.6,68.2c-25.6,7.5-47.7,14-59.9,18.4c-82,30-170.3,57.1-262.3,80.7c-92.1,23.3-179.4,36.3-259.3,38.6
							c-41,1.2-81,1.4-119.8,1.6c-32.9,0.2-66.9,0.4-101.8,1.1c-27.4,0.5-54,1.5-81.3,3.1c-47,2.6-96.7,9.2-144.7,15.6
							c-68.3,9-139,18.4-205.7,17.2c-119.4-2.2-212.6-54-295.4-109.6l-0.2-0.1c-2.9-1.9-5.8-3.9-8.6-5.8
							c-13.6-9.2-27.4-18.9-40.7-28.3c-70.7-49.7-143.8-101.2-237.3-120.9C1356.5,201.5,1287.1,196,1219,198.9L1219,198.9z"/>
					</g>
					<g transform="matrix(1,0,0,-1,-278.201,354.214)">
						<path class="st3" d="M1182.4,201.8c-58.1,2.5-113,10.3-163.5,23.2c-5.4,1.4-10.8,2.8-16.1,4.1
							c-47.9,12.3-96.7,29.4-153.4,53.7c-50.6,21.7-101.3,46.6-155,72.9c-18.7,9.1-37.9,18.6-57.5,28.1
							c-145.8,70.5-289.9,88.5-467.1,58.4l-0.1,0.8c87.2,14.8,165.3,17.9,238.7,9.5c78.2-9,153.1-31.2,229-67.9
							c19.6-9.5,38.9-18.9,57.5-28.1C803.9,303,898.2,256.8,1003,229.9c5.3-1.4,10.7-2.7,16.1-4.1c115.5-29.5,255.7-31.9,394.9-6.9
							c90.6,16.3,161.6,62.3,230.3,106.8c13.5,8.8,27.5,17.8,41.3,26.5c2.4,1.5,4.8,3,7.2,4.4l1.4,0.9
							c35.1,21.6,81.9,48.9,133.3,68.2c52.1,19.5,103,28.9,155.6,28.7c58.7-0.3,121.1-8.6,181.5-16.6
							c56.8-7.6,115.4-15.4,170.5-16.4c27-0.5,53.4-0.3,80.9,0.7c36.6,1.2,72.1,3.3,106.3,5.4c36,2.2,73.2,4.4,111.5,5.5
							c79.5,2.4,167.1-7.8,260.3-30.4c91-22.3,179.8-49.7,263.9-81.4c13.1-4.9,35.4-11.8,61.4-19.8c68.1-21,161.4-49.7,175.8-70.5
							l-0.7-0.5c-14.3,20.6-107.4,49.3-175.4,70.2c-25.9,8-48.4,14.9-61.4,19.8c-84,31.7-172.8,59-263.8,81.4
							c-93.1,22.5-180.6,32.8-260,30.4c-38.2-1.2-75.5-3.4-111.4-5.5c-34.3-2.1-69.7-4.2-106.4-5.4c-27.5-1-53.9-1.2-80.9-0.7
							c-55.1,1-113.8,8.8-170.6,16.4c-60.3,8-122.7,16.3-181.3,16.6c-114.8,0.5-206.6-46.2-288.5-96.7l-1.4-0.9
							c-2.4-1.5-4.8-3-7.2-4.4c-13.8-8.6-27.8-17.7-41.3-26.4c-68.7-44.5-139.8-90.6-230.6-106.9c-68.6-12.3-137.2-18.1-204-17.1
							C1200.8,201.2,1191.5,201.4,1182.4,201.8L1182.4,201.8z"/>
					</g>
					<g transform="matrix(1,0,0,-1,-279.379,337.405)">
						<path class="st3" d="M1136.6,204.4c-45.9,2-88.6,6.9-127.4,14.7l-1.8,0.4c-4.8,1-9.5,1.9-14.3,2.9
							c-120.7,24.1-230.9,75.9-358.5,135.8l-11.2,5.3c-149.2,70.1-293.6,88.6-468.4,60.3l-0.1,0.9c174.9,28.4,319.5,9.8,468.9-60.3
							l11.2-5.2c127.5-59.9,237.7-111.7,358.3-135.8c4.7-1,9.5-1.9,14.3-2.9l1.8-0.4c106.8-21.4,243.3-20.8,394.9,1.8
							c87.8,13.1,156.8,53.8,223.6,93.2c13.7,8.1,27.9,16.5,41.9,24.4c2.1,1.2,4.1,2.3,6.2,3.5l2.3,1.3
							c36.8,20.6,81.2,43.9,130.4,60.5c51.1,17.2,100.8,24.9,151.7,23.5c51.9-1.5,107.2-9.1,160.7-16.4
							c64.3-8.8,130.7-18,192.7-16.8c26.8,0.5,53.1,1.9,80.5,4.5c37.2,3.3,73,7.9,107.6,12.4c34.3,4.4,69.7,8.9,106.4,12.2
							c79,7.1,166.8-0.4,261.1-22.2c90.1-21.2,179.4-48.8,265.4-82.1c13.9-5.4,36.4-12.6,62.5-21c67-21.6,158.7-51.1,175-72.6
							l-0.7-0.5c-16.2,21.2-107.7,50.7-174.6,72.3c-26.1,8.4-48.7,15.7-62.5,21.1c-86,33.3-175.2,60.9-265.3,82.1
							c-94.2,21.8-181.9,29.2-260.8,22.2c-36.7-3.3-72.1-7.8-106.4-12.2c-34.6-4.4-70.4-9-107.6-12.4c-27.3-2.6-53.7-4-80.5-4.5
							c-62-1.2-128.5,8-192.8,16.8c-53.5,7.4-108.8,14.9-160.7,16.4c-115.7,3.3-206.1-41.6-281.7-83.9l-2.3-1.3
							c-2.1-1.1-4.1-2.3-6.1-3.4c-14-7.9-28.2-16.3-41.9-24.3c-66.8-39.4-135.9-80.2-223.9-93.3c-71.9-10.7-140.6-16.6-204.2-17.4
							C1178.4,203.3,1157.2,203.6,1136.6,204.4L1136.6,204.4z"/>
					</g>
					<g transform="matrix(1,0,0,-1,-280.559,328.264)">
						<path class="st3" d="M1081.8,213.4c-29.5,1.3-56.9,3.8-82.5,7.5c-5.4,0.8-10.8,1.6-16.1,2.3c-58.4,8.4-116.6,23.5-183.2,47.5
							c-58.7,21.2-118.5,47.3-190.2,80c-152.7,69.7-297.6,88.8-469.6,62.1l-0.2,0.9c61.8,9.6,120.1,13.3,176.6,10.8
							c100.8-4.4,195.6-28.3,293.6-73c129.3-58.9,246.6-109.2,373.2-127.4c5.3-0.8,10.7-1.5,16.1-2.3
							c120.3-17.5,267.1-4.6,394.9,10.4c85.1,10,152.1,45.4,217,79.7c13.9,7.3,28.2,14.9,42.3,22c1.8,0.9,3.6,1.8,5.3,2.7l2.9,1.5
							c36.5,18.2,80.2,38.8,127.5,52.8c50.1,14.9,98.5,20.9,147.8,18.3c46-2.4,95.1-9.5,142.7-16.4c71-10.3,144.3-20.9,212.3-17
							c26.1,1.4,52.3,4.1,80,8.3c36.9,5.5,72.1,12.5,106.2,19.3c33.4,6.7,68,13.5,104,19c78.3,11.8,166.4,7.1,261.9-14
							c88-19.8,180.3-48.4,266.9-82.8c14.6-5.8,37.1-13.4,63.2-22.2c69.7-23.5,156.4-52.7,174.7-74.8l-0.7-0.6
							c-18.1,21.9-108.4,52.3-174.3,74.5c-26.1,8.8-48.6,16.4-63.2,22.2c-86.5,34.4-178.8,63-266.7,82.8
							c-95.3,21-183.3,25.7-261.5,14c-36-5.4-70.6-12.3-104-19c-34-6.8-69.2-13.8-106.2-19.3c-27.8-4.1-54-6.9-80.1-8.3
							c-68-3.8-141.4,6.8-212.5,17c-47.5,6.9-96.6,14-142.6,16.4c-1.3,0.1-2.5,0.1-3.8,0.2c-109,4.7-197-34.2-271.1-71.2l-2.9-1.5
							c-1.8-0.9-3.6-1.8-5.3-2.7c-14.1-7.1-28.5-14.7-42.3-22c-64.9-34.3-132.1-69.8-217.3-79.8c-84-9.8-147.1-15.3-204.5-17.7
							C1150.9,212,1115,211.9,1081.8,213.4L1081.8,213.4z"/>
					</g>
					<g transform="matrix(1,0,0,-1,-281.74,305.835)">
						<path class="st3" d="M1025,207.1c-12,0.5-23.9,1.3-35.4,2.3c-5.4,0.5-10.8,1-16.2,1.4c-59.2,5.2-119.7,17.8-184.8,38.5
							c-54.2,17.2-113.5,40.5-192.5,75.4c-101.9,45.1-199,69.2-301,73.6c-54.7,2.4-110.8-0.9-169.9-9.6l-0.2,1
							c85.3,12.6,163.9,13.7,240.3,3.3c76.5-10.4,152.1-32.4,231.1-67.4c140.4-62.1,252.4-102.9,377-113.8c5.3-0.5,10.7-1,16.2-1.4
							c95.6-8.7,208.9,1.9,318.5,12.1c25.1,2.3,51,4.8,76.4,6.9c82.3,7,147.5,37.3,210.5,66.5c14,6.5,28.5,13.2,42.7,19.5
							c1.6,0.7,3.2,1.4,4.7,2.1c1.1,0.5,2.2,1,3.3,1.4c38.1,16.6,79.5,33.6,124.5,45.1c49.1,12.5,96.2,16.8,143.9,13.1
							c40.7-3.2,82.3-9.6,126.4-16.4c77-11.9,156.7-24.2,230-17.3c26.1,2.4,52.2,6.4,79.6,12.1c36.8,7.7,71.6,17.2,105.2,26.4
							c32.4,8.9,66,18.1,101.2,25.5c77.7,16.5,166,14.6,262.7-5.8c87.3-18.7,180.1-47.6,268.4-83.6c15.2-6.2,37.5-14,63.4-23.1
							c68.8-24.2,154.5-54.3,174.8-77.1l-0.8-0.7c-20.1,22.6-105.7,52.7-174.4,76.9c-25.9,9.1-48.2,16.9-63.4,23.1
							c-88.2,35.9-181,64.8-268.2,83.5c-96.5,20.3-184.7,22.2-262.2,5.8c-35.2-7.5-68.7-16.6-101.2-25.5
							c-33.6-9.2-68.4-18.7-105.2-26.4c-27.5-5.7-53.6-9.7-79.7-12.1c-73.5-6.9-153.2,5.4-230.3,17.3c-44,6.8-85.6,13.2-126.3,16.4
							c-105.7,8.2-190.4-24.2-268-58.1c-1.1-0.5-2.2-1-3.3-1.4c-1.6-0.7-3.2-1.4-4.7-2.1c-14.3-6.3-28.7-13-42.7-19.5
							c-63.1-29.3-128.3-59.6-210.8-66.6c-25.4-2.2-51.3-4.6-76.4-6.9C1211.8,212.5,1112.6,203.3,1025,207.1L1025,207.1z"/>
					</g>
					<g transform="matrix(1,0,0,-1,-282.919,281.357)">
						<path class="st3" d="M955.6,196.7c-58.1,2.5-116.5,12.1-178.4,29.1c-56.8,15.7-118.7,38.2-194.7,70.8
							c-160.4,68.9-306,89.2-472.1,65.9l-0.2,1.1c166.3,23.4,312.1,3,472.7-66c153.2-65.8,261.9-95.1,372.3-99.9
							c2.8-0.1,5.6-0.2,8.4-0.3c5.3-0.2,10.7-0.4,16.2-0.6c70.9-2.6,149.7,5.4,233.2,13.9c53.1,5.4,107.9,11,161.8,13.8
							c79.5,4.2,142.8,29.2,204,53.5c14.1,5.6,28.7,11.4,43.1,16.7c1.4,0.5,2.8,1,4.2,1.6c1.2,0.5,2.4,0.9,3.6,1.3
							c35.3,13.1,76.7,27.8,121.6,37.3c48.2,10.1,94,12.8,140,8c35.9-3.7,72.6-9.8,111.4-16.2c82.7-13.7,168.2-27.9,246.5-17.7
							c26.1,3.4,52,8.6,79.2,15.9c36.5,9.8,70.7,21.9,103.7,33.5c31.6,11.1,64.3,22.6,98.9,32.1c77,21.2,165.6,22,263.5,2.4
							c86.6-17.7,179.9-46.8,269.9-84.3c15.7-6.5,37.7-14.6,63.1-23.9c68.2-25,153.1-56.1,175.5-79.7l-0.8-0.7
							c-22.2,23.4-106.9,54.5-175,79.4c-25.4,9.3-47.4,17.4-63.1,23.9c-89.9,37.4-183.2,66.5-269.7,84.2
							c-97.7,19.5-186.1,18.7-263-2.4c-34.5-9.5-67.2-21-98.8-32.1c-33.1-11.6-67.2-23.6-103.8-33.5c-27.2-7.3-53.1-12.5-79.3-15.9
							c-78.5-10.3-164.1,3.9-246.8,17.7c-38.8,6.4-75.5,12.5-111.3,16.2c-100.5,10.3-184.1-16.7-261.2-45.3
							c-1.2-0.5-2.4-0.9-3.7-1.3c-1.4-0.5-2.8-1-4.2-1.6c-14.4-5.4-29-11.1-43.1-16.7c-61.3-24.3-124.6-49.4-204.3-53.6
							c-53.9-2.8-108.7-8.4-161.8-13.8c-83.5-8.5-162.3-16.5-233.3-13.9c-5.5,0.2-10.8,0.4-16.2,0.6
							C960.9,196.5,958.2,196.6,955.6,196.7L955.6,196.7z"/>
					</g>
					<g transform="matrix(1,0,0,-1,-284.099,258.949)">
						<path class="st3" d="M906.8,184.6c-46.4,2-92.9,8.6-141,19.9c-59.3,13.9-121.8,35-196.9,66.2
							c-164.6,68.6-310.5,89.5-473.3,67.8l-0.2,1.1c163,21.7,309.2,0.8,473.9-67.9c152-63.3,267-89.2,384.4-86.6
							c5.1,0.1,10.5,0.2,16.2,0.3c55.7,1,116.6,8.8,181.1,16.9c69.9,8.9,142.3,18,214,19.4c76.7,1.4,138.1,21.4,197.4,40.7
							c14.3,4.6,29,9.4,43.5,13.8c1.3,0.4,2.5,0.8,3.8,1.1c1.3,0.4,2.6,0.8,3.9,1.2c36.9,11.1,76.4,22.6,118.7,29.5
							c47.2,7.7,91.8,8.7,136.1,2.9c31.4-4.1,63.4-9.8,97.3-15.9c88.1-15.8,179.1-32.2,262.1-18.2c26.2,4.3,52,10.8,78.7,19.7
							c36.1,12,69.6,26.5,102,40.5c30.9,13.4,62.8,27.2,96.8,38.8c76.7,26,165.6,29.6,264.3,10.7c85.2-16.4,179-45.8,271.4-85
							c16.1-6.8,38.5-15.4,62.2-24.4c67.8-25.9,152.2-58.1,176.7-82.5l-0.8-0.8c-24.4,24.3-108.6,56.4-176.3,82.3
							c-23.7,9-46.1,17.6-62.2,24.4c-92.2,39.2-186,68.6-271.1,84.9c-98.5,18.9-187.2,15.4-263.7-10.6c-34-11.5-65.9-25.4-96.8-38.7
							c-32.4-14-65.9-28.5-102.1-40.5c-26.8-8.9-52.6-15.4-78.9-19.7c-29.8-5-60.6-6.1-92-4.7c-56.2,2.4-114,12.8-170.6,23
							c-33.9,6.1-65.9,11.8-97.2,15.9c-95.1,12.3-174.6-8.3-254.3-32.4c-1.3-0.4-2.6-0.8-3.9-1.2c-1.3-0.4-2.5-0.8-3.8-1.1
							c-14.5-4.4-29.3-9.2-43.5-13.8c-59.4-19.3-120.9-39.3-197.8-40.7c-71.6-1.3-143.9-10.5-213.8-19.3
							c-64.5-8.2-125.5-15.9-181.2-16.9c-5.6-0.1-11.1-0.2-16.2-0.3C938.1,183.8,922.5,183.9,906.8,184.6L906.8,184.6z"/>
					</g>
					<g transform="matrix(1,0,0,-1,-285.279,245.141)">
						<path class="st3" d="M860.8,178.9c-35.2,1.5-70.4,5.8-106.3,12.8c-60.3,11.8-125.5,31.9-199.1,61.7
							C386.4,321.6,240,343.1,80.8,323l-0.2,1.2c83.4,10.5,162.5,9.6,242-2.8c73.9-11.5,150.2-33.4,233.2-67
							c149.9-60.6,266-82.4,388.2-73l0.5,0c5.2,0.4,10.4,0.8,15.7,1.2c45.3,3.3,94.3,11.2,146.1,19.6c81.1,13.1,165.1,26.6,249,25.3
							c73.9-1.2,133.3,13.7,190.8,28c14.4,3.6,29.4,7.3,44.1,10.7c1.1,0.3,2.3,0.5,3.4,0.8c1.4,0.3,2.7,0.6,4.1,0.9
							c32.7,7.5,73.4,16.8,115.7,21.6c46.3,5.2,89.6,4.6,132.2-2.1c27-4.2,54.5-9.6,83.6-15.2c93.3-18.2,189.7-37,277.3-19.1
							c26.3,5.3,51.9,13,78.3,23.5c35.6,14.1,68.4,31.1,100,47.5c30.2,15.6,61.4,31.8,95,45.4c38.9,15.7,81.7,25.2,127.3,28
							c42.9,2.7,89.3-0.4,137.8-9.2c85.4-15.8,179.8-45.4,272.9-85.7c16.2-7,37.7-15.6,60.5-24.6c67.7-26.9,151.9-60.3,178.8-85.7
							l-0.8-0.9c-26.6,25.3-110.8,58.6-178.4,85.4c-22.8,9-44.3,17.6-60.5,24.6c-93,40.3-187.3,69.9-272.6,85.6
							c-100.1,18-189.1,11.7-264.4-18.8c-33.5-13.6-64.7-29.7-94.9-45.4c-31.7-16.4-64.4-33.4-100.1-47.5
							c-26.5-10.5-52.2-18.2-78.5-23.5c-39.3-8-84.2-9.3-137.3-3.9c-46.9,4.8-94.5,14-140.5,23c-29.1,5.7-56.5,11-83.5,15.2
							c-96.6,15.1-176.8-3.3-247.5-19.5c-1.4-0.3-2.7-0.6-4.1-0.9c-1.1-0.3-2.3-0.5-3.4-0.8c-14.7-3.3-29.6-7.1-44-10.7
							c-57.6-14.4-117.1-29.2-191.1-28.1c-83.9,1.3-167.7-12.2-248.8-25.3c-51.8-8.4-100.8-16.3-146.2-19.6
							c-5.3-0.4-10.6-0.8-15.7-1.2l-0.5,0C916.1,178.2,888.4,177.7,860.8,178.9L860.8,178.9z"/>
					</g>
					<g transform="matrix(1,0,0,-1,-286.458,230.583)">
						<path class="st3" d="M817.9,170.6c-24.8,1.1-49.7,3.6-74.9,7.5c-61.9,9.6-127.7,28.3-201.3,57.2
							c-175.9,68.9-318.3,90.3-475.8,71.6l-0.2,1.3c82.7,9.8,162.1,8.3,242.5-4.8c72.8-11.8,149.3-33.7,233.9-66.8
							C690.8,178.2,808,160.4,934.1,177l3.3,0.4c4.2,0.6,8.5,1.1,12.9,1.7c37.9,4.9,78.3,13.1,121.2,21.7
							c43.6,8.8,88.6,17.9,134.7,24.3c52.2,7.2,97.8,9.7,139.3,7.6c70.9-3.6,128.3,6.2,183.9,15.6c14.7,2.5,29.9,5.1,44.8,7.3
							c1,0.2,2,0.3,3.1,0.5c1.4,0.2,2.9,0.4,4.3,0.6l4.7,0.7c35.2,5.4,71.6,11,110.7,13.2c44.4,2.5,85.5,0.1,125.7-7.3
							c22.7-4.2,45.7-9.1,70.1-14.2c98.4-20.9,200.2-42.5,292.3-20.3c26.3,6.3,51.8,15.2,77.8,27.3c35.1,16.2,67.1,35.6,98,54.4
							c29.5,18,60.1,36.5,93.2,52.1c38.6,18.2,81.4,29.6,127.2,33.8c42.9,3.9,89.6,1.7,138.7-6.7c43.9-7.7,90.2-19.2,137.8-34.4
							c44.8-14.3,90.7-31.8,136.5-52c16-7.1,36.3-15.4,57.7-24.3c67.9-28,152.5-62.8,181.8-89.3l-0.9-0.9
							c-29.1,26.4-113.6,61.2-181.4,89.1c-21.5,8.8-41.8,17.2-57.8,24.3c-94.5,41.7-189.2,71.5-274.1,86.3
							c-101.3,17.3-190.5,8.2-265.2-27c-33.1-15.6-63.6-34.1-93.1-52.1c-30.9-18.8-62.9-38.3-98.1-54.5
							c-26.2-12.1-51.7-21-78.1-27.3c-41.3-10-88.7-11.9-145-5.9c-49.6,5.3-99.6,15.9-147.9,26.2c-24.4,5.2-47.3,10.1-70,14.2
							c-89.7,16.5-167.4,4.6-236-5.9l-4.7-0.7c-1.4-0.2-2.9-0.4-4.3-0.6c-1-0.2-2-0.3-3-0.5c-14.9-2.2-30.1-4.8-44.8-7.3
							c-54.4-9.3-110.7-18.8-179.8-15.9c-1.5,0.1-2.9,0.1-4.4,0.2c-92.8,4.7-188.9-14.7-273.7-31.8c-42.8-8.7-83.3-16.8-121.3-21.7
							c-4.3-0.6-8.6-1.1-12.9-1.7l-3.3-0.4C895,170.6,856.5,168.9,817.9,170.6L817.9,170.6z"/>
					</g>
					<g transform="matrix(1,0,0,-1,-287.638,216.211)">
						<path class="st3" d="M778.5,160.9c-15.6,0.7-31.2,1.9-46.8,3.8c-63.2,7.4-129.8,24.6-203.5,52.6
							c-127.5,48.4-236.1,73.6-342.8,78.2c-44.7,1.9-89,0.3-134.3-4.8l-0.2,1.3c82.1,9.2,161.6,6.9,243.1-6.8
							c72.4-12.2,146.9-33.4,234.6-66.7c147.8-56.1,266.1-69.8,395.6-45.7c2,0.4,4.1,0.8,6.2,1.2c3.3,0.6,6.7,1.2,10.1,1.9
							c32.4,6,66.6,14.4,102.8,23.4c90.3,22.3,192.6,47.5,292.4,38.8c67.8-5.9,123-1.1,176.5,3.5c15.1,1.3,30.8,2.7,46.2,3.7
							c0.9,0.1,1.8,0.1,2.8,0.2c1.5,0.1,2.9,0.2,4.4,0.3c4.8,0.4,9.5,0.7,14.4,1.1c64.3,4.8,137.2,10.3,219.8-7.3
							c18.3-3.9,36.8-8.2,56.3-12.7c98.8-22.9,210.8-48.9,307.5-22.1c26.4,7.3,51.7,17.4,77.4,31c34.6,18.3,65.8,40.2,95.9,61.3
							c28.9,20.3,58.8,41.2,91.5,58.9c38.3,20.7,81.1,34,127.2,39.5c43,5.2,89.9,3.8,139.6-4.2c43.9-7.2,90.5-18.7,138.6-34.1
							c44.8-14.4,90.9-32.2,137.3-53c15.4-6.9,34-14.8,53.7-23.2c68.7-29.3,154.1-65.8,186.2-93.7l-0.9-1
							c-31.9,27.7-117.3,64.2-185.9,93.5c-19.7,8.4-38.3,16.3-53.7,23.3c-95.9,43-191.2,73.1-275.5,87
							c-102.6,16.5-192.1,4.7-265.9-35.2c-32.6-17.6-62.5-38.6-91.4-58.8c-30.2-21.2-61.4-43.1-96.1-61.4
							c-25.8-13.7-51.3-23.8-77.7-31.1c-43.4-12-93.3-14.6-152.8-7.8c-52.3,6-104.7,18.1-155.4,29.9c-19.5,4.5-38,8.8-56.3,12.7
							c-82.4,17.6-155.2,12.1-219.5,7.3c-4.8-0.4-9.6-0.7-14.4-1.1c-1.5-0.1-2.9-0.2-4.4-0.3c-0.9-0.1-1.8-0.1-2.8-0.2
							c-15.4-1-31-2.4-46.1-3.7c-45-3.9-91.3-7.9-145.2-5.5c-10.2,0.4-20.6,1.1-31.4,2.1c-99.6,8.7-201.8-16.5-291.9-38.8
							c-36.3-8.9-70.5-17.4-102.9-23.4c-3.4-0.6-6.8-1.3-10.1-1.9c-2.1-0.4-4.1-0.8-6.2-1.2C875,162.3,826.8,158.8,778.5,160.9
							L778.5,160.9z"/>
					</g>
					<g transform="matrix(1,0,0,-1,-288.817,193.134)">
						<path class="st3" d="M742.4,141.2c-7.3,0.3-14.7,0.8-22,1.4c-64.4,5.2-131.7,20.9-205.8,48.1c-138,50.7-291.5,94.9-478.3,75.3
							l-0.1,1.4c81.5,8.5,161.2,5.6,243.7-8.8c70.7-12.4,145.4-33.6,235.3-66.6c81.1-29.8,155.3-46.1,227.7-49.2
							c57.5-2.5,113.8,3.3,171.6,17.1c2.9,0.7,5.8,1.4,8.8,2.1c2.5,0.6,5,1.2,7.5,1.8c28.1,6.7,57.7,15.5,89,24.7
							c94.3,27.8,201.2,59.2,306.3,46.2c64.1-8,116.8-8.1,167.8-8.2c16.7,0,32.5-0.1,48.7-0.4c0.8,0,1.6,0,2.5-0.1
							c1.5,0,3-0.1,4.5-0.1c8.3-0.1,16.6-0.1,25.3-0.2c59.6-0.3,127.1-0.7,202-18.9c13.8-3.3,27.5-6.8,42.1-10.6
							c103.9-26.4,221.7-56.3,323.2-24.5c26.6,8.3,51.8,19.7,77,34.8c34.2,20.4,64.7,44.8,94.1,68.4c28.2,22.6,57.3,45.9,89.5,65.5
							c38,23.2,80.8,38.4,127.1,45.3c43,6.4,90.3,5.8,140.4-1.8c43.9-6.8,90.8-18.2,139.4-33.9c44.8-14.4,91.2-32.6,138-54
							c14.1-6.4,30.3-13.6,47.4-21.2c70.1-31,157.4-69.5,192.8-99.1l-0.9-1.1c-35.2,29.4-122.4,67.9-192.4,98.9
							c-17.2,7.6-33.4,14.7-47.5,21.2c-98.7,45-191.9,74.5-277,87.7c-103.8,15.7-193.5,1.2-266.6-43.3
							c-32.2-19.6-61.2-42.9-89.3-65.4c-29.5-23.6-60-48.1-94.3-68.5c-25.3-15.2-50.6-26.6-77.3-35c-101.8-32-219.8-2-323.9,24.5
							c-14.6,3.7-28.4,7.2-42.1,10.5c-74.8,18.2-142.2,18.6-201.7,18.9c-8.7,0.1-17,0.1-25.3,0.2c-1.5,0-3,0.1-4.5,0.1
							c-0.8,0-1.6,0-2.5,0.1c-16.2,0.3-32,0.3-48.7,0.4c-51,0.1-103.8,0.2-168,8.2c-104.8,13-211.5-18.4-305.7-46.1
							c-31.3-9.2-60.9-17.9-89.1-24.7c-2.5-0.6-5-1.2-7.5-1.8c-3-0.7-5.9-1.4-8.8-2.1C855.9,144.4,799.3,138.7,742.4,141.2
							L742.4,141.2z"/>
					</g>
					<g transform="matrix(1,0,0,-1,-289.997,193.302)">
						<path class="st3" d="M709.1,143.6H709c-65.5,2.9-133.5,17.1-208,43.6c-164.3,58.4-308.8,93.9-479.6,77.2l-0.1,1.4
							c80.8,7.9,160.7,4.3,244.2-10.9c69.5-12.7,142.3-33.1,236-66.4c145.6-51.7,269.9-57.4,403.1-18.5c3.8,1.1,7.6,2.2,11.5,3.4
							l4.8,1.4c24.9,7.3,50.9,16.3,78.4,25.8c97.4,33.5,207.7,71.5,317,53.7c58.7-9.6,107.7-14.3,155-18.8c19-1.8,37-3.5,55.4-5.6
							l2.1-0.2c1.5-0.2,3.1-0.3,4.7-0.5c12.5-1.3,25-2.4,38.2-3.5c54.2-4.8,115.6-10.2,182.2-28.5c8.9-2.4,17.7-4.9,27.1-7.5
							c109.3-30.5,233.2-65.1,339.7-27.8c26.6,9.3,51.7,21.9,76.5,38.6c33.7,22.4,63.3,49.2,91.9,75.2c27.5,24.9,56,50.7,87.9,72.4
							c37.7,25.6,80.5,42.9,127.1,51.1c43.1,7.6,90.6,7.9,141.3,0.6c44-6.4,91.1-17.7,140.1-33.6c44.8-14.5,91.4-33,138.7-54.9
							c11.6-5.4,24.4-11.2,37.8-17.3c72.8-33.2,163.3-74.5,202.7-106.2l-0.9-1.1c-39.2,31.7-129.7,72.9-202.4,106
							c-13.5,6.1-26.2,11.9-37.9,17.3c-100,46.3-193.7,76.1-278.5,88.5c-105.1,15-195-2.4-267.3-51.5
							c-31.8-21.6-60.2-47.4-87.7-72.3c-28.7-26-58.3-52.8-92.1-75.3c-25-16.8-50.1-29.4-76.9-38.8
							c-47.7-16.7-103.3-20.5-169.9-11.5c-58.2,7.8-115.4,23.8-170.7,39.2c-9.3,2.6-18.2,5.1-27.1,7.5
							c-66.5,18.3-127.9,23.7-182,28.4c-13.2,1.2-25.8,2.3-38.2,3.5c-1.6,0.2-3.1,0.3-4.7,0.5l-2.1,0.2c-18.4,2-36.4,3.7-55.4,5.6
							c-47.4,4.5-96.3,9.2-155.1,18.8c-108.9,17.7-219.1-20.2-316.3-53.6c-27.5-9.5-53.5-18.4-78.5-25.8l-4.8-1.4
							c-3.9-1.1-7.7-2.3-11.5-3.4C837.7,149,773.6,140.8,709.1,143.6L709.1,143.6z"/>
					</g>
					<g transform="matrix(1,0,0,-1,-291.177,195.182)">
						<path class="st3" d="M678.2,147c-60.5,2.6-123.1,15.3-190.8,38.6C313,245.5,171.7,279.6,6.5,264.7l-0.1,1.5
							c80.2,7.3,160.3,3.1,244.8-12.9c85.3-16.1,167.5-42.5,236.7-66.3c145.9-50.1,271.3-51.7,406.8-4.9c4.8,1.7,9.5,3.3,14.6,5.1
							l1.8,0.6c22.3,7.8,45.6,17,70.1,26.7c99.7,39.4,212.8,84.1,325.3,61.3c39.9-8.1,74.8-14.8,108.7-21.3
							c33-6.4,64.2-12.4,95.7-18.8l1.9-0.4c1.6-0.3,3.1-0.7,4.7-1c17.4-3.4,35.1-6.4,53.8-9.7c50.3-8.6,102.2-17.6,159.8-35.2
							c3.5-1.1,7.1-2.2,10.6-3.3c109.3-33.6,245.4-75.5,357.6-32.2c26.6,10.3,51.6,24.1,76.1,42.4c33.1,24.5,61.9,53.7,89.7,81.9
							c26.9,27.3,54.7,55.5,86.3,79.3c37.4,28.1,80.1,47.3,127,56.9c43.1,8.9,91,9.9,142.2,3.1c84.6-11.5,178.9-41.6,280.4-89.3
							c7-3.3,14.4-6.8,22-10.3c73.5-34.4,174.1-81.5,218.9-116.6l-0.9-1.2c-44.7,34.9-145.2,82-218.6,116.4c-7.6,3.6-14.9,7-22,10.3
							c-101.3,47.7-195.5,77.7-279.9,89.2c-106.4,14.2-196.5-5.9-268.1-59.7c-31.5-23.7-59.3-51.9-86.1-79.1
							c-27.9-28.3-56.7-57.5-89.9-82.1c-24.7-18.4-49.7-32.3-76.5-42.6c-50.2-19.4-109-23.7-179.6-13.1
							c-61.5,9.2-123.9,28.4-178.9,45.3c-3.6,1.1-7.1,2.2-10.6,3.3c-57.5,17.7-109.4,26.6-159.6,35.2c-18.7,3.2-36.5,6.3-53.8,9.7
							c-1.6,0.3-3.2,0.6-4.7,1l-1.9,0.4c-31.5,6.5-62.6,12.5-95.6,18.8c-33.8,6.5-68.8,13.2-108.7,21.3
							c-112.1,22.7-224.9-21.9-324.4-61.3c-24.6-9.7-47.8-18.9-70.2-26.8l-1.8-0.6c-5-1.8-9.8-3.4-14.6-5.1
							c-68.1-23.5-132.7-34.7-197.5-34.2C691.2,146.5,684.7,146.7,678.2,147L678.2,147z"/>
					</g>
					<g transform="matrix(1,0,0,-1,-292.355,197.682)">
						<path class="st3" d="M649.3,150.2c-55.9,2.4-113.7,13.7-175.5,34.3c-153.7,51.1-306.3,95.7-482.1,81l-0.1,1.6
							c42.1,3.5,83.2,3.9,125.6,1c38.9-2.6,78.1-7.8,119.7-15.9c80.8-15.7,161.9-41.1,237.4-66.2c146.4-48.7,273-46,410.5,8.7
							c5.4,2.2,11.1,4.4,16.3,6.6c20.3,8.3,41.3,17.7,63.6,27.7c51.3,23,104.4,46.8,160.4,61.9c64.1,17.3,120.2,19.7,171.5,7.1
							c77.7-18.9,139-37.7,198.2-55.9l1.4-0.4c1.7-0.5,3.3-1,5-1.5c23.6-7,48-13.2,73.9-19.8c42.2-10.8,85.8-21.9,132.8-37.9
							c106-36.2,251.2-85.7,369.7-35.7c26.7,11.2,51.4,26.3,75.7,46.2c32.6,26.5,60.5,58.1,87.5,88.7c26.3,29.7,53.4,60.4,84.7,86.2
							c37.1,30.6,79.8,51.7,126.9,62.7c43.2,10.1,91.4,11.9,143.1,5.5c84.3-10.7,179.1-41,281.9-90
							c70.2-33.5,187.6-89.5,241.2-130.2l-1-1.3c-53.5,40.6-170.9,96.6-241,130.1c-102.6,49-197.3,79.2-281.4,89.9
							c-107.6,13.4-198.1-9.5-268.8-67.9c-31.2-25.7-58.3-56.4-84.5-86.1c-27.1-30.6-55-62.2-87.7-88.8
							c-24.4-19.9-49.2-35.1-76.1-46.4c-52-22-113-26.9-186.5-15.2c-66.5,10.6-134.6,33.9-184.3,50.8c-47,16-90.6,27.1-132.7,37.9
							c-25.9,6.6-50.4,12.9-74,19.8c-1.7,0.5-3.3,1-5,1.5l-1.4,0.4c-59.2,18.2-120.5,36.9-198.2,55.9
							c-114.6,27.9-229.5-23.5-330.9-69c-22.3-10-43.3-19.4-63.7-27.7c-5.3-2.2-10.9-4.4-16.3-6.6c-68.8-27.4-133.9-41.5-199-43.3
							C674.1,149.5,661.7,149.6,649.3,150.2L649.3,150.2z"/>
					</g>
					<g transform="matrix(1,0,0,-1,-293.535,196.629)">
						<path class="st3" d="M622.1,149.3c-51.8,2.3-105.2,12.4-161.9,30.6c-136.8,43.9-256.5,78.9-385.1,84.5
							c-32.1,1.4-64.7,1-98.2-1.6l-0.1,1.6c42,3.2,83.2,3.2,125.9,0c38.8-2.9,78-8.4,120-16.9c79.3-15.9,157.8-40.4,238.1-66.1
							c147.2-47.2,275-40.4,414.2,22.3c5.8,2.6,11.5,5.2,16.4,7.5c18.7,8.6,38,18.3,58.4,28.6c49.5,24.8,105.7,53,162.6,70
							c65.2,19.5,122.3,21.7,174.6,6.7c65-18.6,118.3-40.9,169.7-62.3c7.3-3.1,14.9-6.2,22.4-9.3l1-0.4c1.7-0.7,3.4-1.4,5.2-2.1
							c31.9-12.8,65.8-24.2,101.8-36.3c31.5-10.6,64-21.5,98-34.3c119.3-45,256.2-88.6,371.2-35.9c26.7,12.2,51.3,28.5,75.3,50
							c32,28.5,59.1,62.5,85.3,95.3c25.6,32.1,52.1,65.3,83.1,93.2c36.7,33.1,79.4,56.2,126.8,68.5c43.3,11.3,91.7,14,144,7.9
							c84-9.9,179.4-40.4,283.4-90.7c116.8-56.5,198-101.4,241.6-133.6l-1-1.3c-43.4,32.1-124.6,76.9-241.3,133.4
							c-103.8,50.2-199,80.7-282.8,90.6c-108.9,12.6-199.6-13-269.5-76c-30.9-27.8-57.3-61-82.9-93c-26.2-32.9-53.4-66.9-85.5-95.5
							c-24.1-21.5-48.8-38-75.7-50.2c-27.6-12.6-58.4-20.4-91.6-23c-29.3-2.3-61.6-0.7-96,4.8c-63.6,10.2-126.5,32-184.9,54
							c-34,12.8-66.5,23.7-98,34.3c-36,12.1-69.9,23.5-101.9,36.3c-1.7,0.7-3.5,1.4-5.2,2.1l-1,0.4c-7.5,3.1-15.1,6.3-22.4,9.3
							c-51.4,21.5-104.6,43.7-169.6,62.3c-116.6,33.4-233.1-25.1-336-76.7c-20.4-10.3-39.8-19.9-58.5-28.6
							c-4.9-2.3-10.6-4.9-16.4-7.5c-69.5-31.3-135.1-48.4-200.5-52.4C657.6,148.7,639.9,148.6,622.1,149.3L622.1,149.3z"/>
					</g>
					<g transform="matrix(1,0,0,-1,-294.714,197.154)">
						<path class="st3" d="M596.3,149.5c-48,2.1-97.5,11.1-149.7,27.3l-4.5,1.4c-165.2,51.2-308,95.4-480.1,83.4l-0.1,1.7
							c78.8,5.5,156.4-0.3,244.3-18.4c78.4-16.1,155.1-39.9,236.4-65l4.5-1.4c148.1-45.9,277-34.8,418,35.9c4.7,2.4,9.9,5,16.4,8.4
							c17.4,9,35.3,19,54.2,29.5c50,27.8,106.7,59.3,164.4,78.3c66.2,21.7,124.1,23.8,177,6.2c60.4-20,110.2-46.8,158.3-72.6
							c9.1-4.9,18.5-9.9,27.8-14.8l0.3-0.2c1.9-1,3.8-2,5.7-3c44.6-23,93.7-43,145.7-64.1c15.3-6.2,31.2-12.7,47.2-19.3
							c112.8-46.8,257.1-93.2,372.7-36.2c26.7,13.2,51.2,30.7,74.8,53.7c31.5,30.5,57.7,66.8,83.1,102c25,34.5,50.8,70.3,81.5,100.3
							c36.4,35.6,79,60.6,126.6,74.3c43.4,12.5,92.2,16,145,10.4c83.8-9.1,179.6-39.8,284.9-91.5
							c101.5-49.7,191.9-100.9,241.9-136.9l-1-1.4c-49.9,35.9-140.3,87-241.7,136.7c-105.1,51.5-200.7,82.2-284.3,91.3
							c-110.2,11.8-201.1-16.6-270.3-84.2c-30.6-29.9-56.4-65.5-81.3-100c-25.4-35.2-51.7-71.5-83.3-102.2
							c-23.8-23.1-48.4-40.8-75.3-54c-27.7-13.7-58.6-22.2-92-25.3c-29.6-2.8-62.1-1.4-96.6,4.1c-68.4,11-135.1,36.4-185.5,57.3
							c-16,6.6-31.9,13.1-47.2,19.3c-52,21.2-101.2,41.2-145.8,64.2c-1.9,1-3.8,2-5.7,3l-0.4,0.2c-9.3,4.9-18.7,10-27.8,14.9
							c-48,25.8-97.7,52.6-158,72.5c-118,39.1-236-26.5-340.1-84.4c-19-10.5-36.9-20.5-54.3-29.5c-6.5-3.3-11.7-6-16.4-8.4
							c-70.1-35.1-136.2-55.3-202-61.6C641.6,149.2,619.1,148.6,596.3,149.5L596.3,149.5z"/>
					</g>
					<g transform="matrix(1,0,0,-1,-295.894,200.294)">
						<path class="st3" d="M1871.8,89c-15.3,0.7-31.1,2.3-47.3,4.9c-54.7,8.8-115.5,28.6-186,60.6c-72.9,33.1-132.5,62.2-186.3,96.4
							c-2,1.2-3.9,2.5-5.9,3.8c-10,6.5-20.2,13.3-30,19.8c-45.6,30.4-92.7,61.8-149.7,83.3c-119.1,45-238.3-27.8-343.5-92.1
							c-17.7-10.8-34.5-21.1-50.8-30.4c-6.2-3.5-11.5-6.6-16.4-9.3c-70.6-39-137.1-62.1-203.5-70.6c-70-8.9-141.8-2.1-219.5,21
							c-9.1,2.7-18.2,5.5-27.3,8.2c-151.2,45.7-294.1,88.8-458.6,78.4l-0.1,1.7c75.3,4.7,149.6-1,233.9-18
							c75-15.1,148-37.2,225.4-60.5c9-2.7,18.1-5.5,27.3-8.2C481,164,526.6,155.9,571.2,154c95.7-4.2,187.1,20,284,73.6
							c4.9,2.7,10.2,5.7,16.4,9.3c16.3,9.4,33,19.6,50.7,30.4c50.5,30.8,107.6,65.7,166,86.6c67,24,125.6,25.8,179,5.6
							c57.2-21.6,104.4-53.1,150-83.5c9.8-6.5,19.9-13.3,29.9-19.8c2-1.3,3.9-2.5,5.8-3.8c53.7-34.2,113.2-63.2,186.1-96.3
							c102.3-46.5,252.3-100.8,374.1-36.4c26.8,14.1,51.1,32.9,74.4,57.5c30.9,32.5,56.3,71.2,80.9,108.6
							c24.3,37,49.5,75.2,79.9,107.3c36,38.1,78.6,65,126.5,80.1c43.5,13.7,92.6,18,145.9,12.8c83.6-8.3,179.9-39.3,286.4-92.2
							c88.2-43.8,183.3-98.9,242.2-140.2l-1-1.4c-58.8,41.3-153.8,96.3-242,140.1c-106.2,52.8-202.4,83.7-285.8,92
							c-111.4,10.9-202.6-20.1-271-92.4c-30.3-32-55.4-70.2-79.7-107.1c-24.6-37.4-50.1-76.2-81.1-108.8
							c-23.4-24.7-47.9-43.6-74.8-57.9c-27.8-14.7-58.9-24-92.4-27.7C1905.9,88.7,1889.2,88.2,1871.8,89L1871.8,89z"/>
					</g>
					<g transform="matrix(1,0,0,-1,-297.072,186.991)">
						<path class="st3" d="M1846.9,62.9c-67.9,2.9-145.2,25.9-231.4,68.7c-69.8,34.6-128.5,70.4-179.5,109.3
							c-1.9,1.5-3.8,2.9-5.7,4.4c-10.4,8.1-20.9,16.5-31,24.7c-43.3,34.9-88.2,71-142.5,94.1c-119.8,51.1-245.4-32.6-346.4-99.8
							c-16.7-11.1-32.5-21.6-47.8-31.3c-6-3.8-11.4-7.1-16.4-10.2c-71.1-43-138.2-69-205-79.8c-30.6-4.9-61.5-6.7-93.1-5.3
							c-41.5,1.8-84.2,9.1-128.8,21.9c-17.6,5.1-35.2,10.3-52.3,15.3c-143.4,42.2-278.8,82-434.8,73.3l-0.1,1.8
							c156.3,8.8,291.9-31.1,435.4-73.3c17.1-5,34.7-10.2,52.3-15.3c150.5-43.2,281.7-23.7,425.4,63c5,3,10.4,6.4,16.4,10.1
							c15.3,9.7,31.1,20.2,47.8,31.3c50.8,33.9,108.5,72.2,167.5,95.1c67.8,26.2,126.9,27.9,180.6,4.9
							c54.5-23.2,99.4-59.4,142.9-94.4c10.1-8.2,20.6-16.6,31-24.7c1.9-1.5,3.8-2.9,5.7-4.4c50.9-38.9,109.5-74.6,179.2-109.2
							c155.4-77.2,281.8-89.5,375.6-36.6c26.8,15.1,51,35.1,74,61.3c30.4,34.5,55,75.5,78.8,115.1c23.7,39.4,48.1,80.2,78.2,114.4
							c35.7,40.5,78.2,69.5,126.4,85.9c43.6,14.9,93,20,146.9,15.2c44.6-4,93.3-14.8,144.7-32.2c44.8-15.1,93-35.5,143.2-60.7
							c78.3-39.4,169-93,242.5-143.5l-1-1.5c-73.5,50.5-164.2,104.1-242.4,143.4c-107.4,54-204.1,85.2-287.2,92.7
							c-112.7,10.1-204.1-23.7-271.7-100.6c-30-34.1-54.4-74.8-78.1-114.2c-23.8-39.7-48.5-80.7-78.9-115.4
							c-23.1-26.3-47.5-46.5-74.4-61.7C1950.6,71.2,1901.9,60.5,1846.9,62.9L1846.9,62.9z"/>
					</g>
					<g transform="matrix(1,0,0,-1,-298.252,186.906)">
						<path class="st3" d="M1822,49.9c-13.8,0.6-28,2.1-42.6,4.4c-31,4.9-63.7,13.8-97.4,26.4c-29.3,11-59.4,24.8-89.5,41.1
							c-61.8,33.5-119.9,74.6-172.7,122.3c-12.4,11.2-24.9,23.2-37,34.7c-41.3,39.4-83.9,80.1-135.8,104.9
							c-53.4,25.5-112.5,24.1-180.5-4.2c-59.3-24.7-117.3-66.5-168.4-103.4c-21.7-15.6-42.2-30.4-61.6-43.2
							c-71.6-46.9-139.1-76-206.5-89c-34.3-6.6-68.9-9.1-104.4-7.6c-38.7,1.7-78.5,8.2-119.8,19.7c-25.1,7-50,14.1-74.2,21.1
							c-136.6,39.4-265.6,76.6-414.2,69.3l-0.1,1.9c148.9,7.4,278.1-29.9,414.8-69.4c24.1-7,49.1-14.2,74.1-21.1
							c151.7-42,284-18.4,429.1,76.6c19.4,12.7,39.9,27.5,61.6,43.1c51.2,37,109.3,78.8,168.8,103.6c68.5,28.6,128,29.9,182,4.2
							c52.1-24.9,94.9-65.7,136.3-105.2c12.1-11.5,24.6-23.5,37-34.7c52.7-47.6,110.6-88.6,172.3-122c86-46.6,249.4-113.3,377-36.8
							c71,42.6,111.2,115.8,150.1,186.7c23,41.9,46.8,85.2,76.6,121.6c25.4,31,54.7,55.8,86.9,73.7c30.1,16.8,63.6,28,99.7,33.3
							c33.3,4.9,69.6,5,107.9,0.2c35-4.4,72.7-13,111.9-25.5c66.7-21.3,138.1-53.7,218.1-98.8c66.6-37.6,126.7-77,181.8-114l-1-1.6
							c-125.2,84.2-260.3,168.2-399.4,212.6c-177.5,56.7-313.6,29.4-404.4-81.2c-29.7-36.2-53.5-79.5-76.4-121.3
							c-19.5-35.5-39.6-72.2-63.4-104.7c-26.7-36.5-55.3-63.6-87.4-82.8C1928.4,59.2,1878.3,47.5,1822,49.9L1822,49.9z"/>
					</g>
				</g>
			</g>
		</g>
	</g>
	<g class="st4">
		<g>
			<g>
				<defs>
					<rect id="SVGID_00000051380346607128559060000002131124036877959046_" x="-14.8" y="784.5" width="2027.4" height="295.5"/>
				</defs>
				<clipPath id="SVGID_00000071533137472273707820000003215494454887023281_">
					<use xlink:href="#SVGID_00000051380346607128559060000002131124036877959046_"  style="overflow:visible;"/>
				</clipPath>
				<g style="clip-path:url(#SVGID_00000071533137472273707820000003215494454887023281_);">
					<g transform="matrix(-1,0,0,1,2183.12,644.996)">
						<path class="st3" d="M1260.6,172.5c-18,0.8-36.2,2.8-54.6,6.1c-59.2,10.6-120.8,34.3-183.1,70.5
							c-59.2,34.3-114.9,75.8-168.8,115.8c-55.4,41.2-112.8,83.8-173.9,118.7c-155.5,88.9-302.7,74.1-438.6,44.9l-0.1,0.4
							c88.2,19,159.6,25.6,224.6,20.9c76.3-5.5,146.4-27.1,214.2-65.9c61.1-34.9,118.4-77.5,173.9-118.8
							c53.9-40,109.7-81.5,168.8-115.8c134.6-78.2,261.4-97,376.8-55.9c102.6,36.5,183.1,112.6,260.9,186.1
							c10.9,10.3,22.2,21,33.4,31.3c54.6,50.7,101.7,86.9,148.3,113.9c57.1,33.1,114.6,53,175.8,60.8c62.6,8,129.8,6.3,205.5-5.3
							c71.3-10.9,141.7-29.3,201.2-45.9c125.8-35.1,252.5-74.7,375-113c32.2-10.1,65.6-20.5,98.4-30.7
							c71.7-22.3,156.7-48.4,243.3-73.6c6.9-2,22.7-5.5,42.6-10c66.9-15,178.9-40,181.7-57.1l-0.4-0.1c-1.2,7.3-23.7,17.1-66.9,29.1
							c-36.8,10.3-81.7,20.3-114.4,27.6c-20,4.5-35.8,8-42.7,10c-86.6,25.2-171.6,51.3-243.3,73.6c-32.8,10.2-66.1,20.6-98.4,30.7
							c-122.5,38.3-249.3,78-375,113c-90.6,25.3-192.1,51-295.6,55.4c-36.8,1.6-73.9,0.5-110.9-4.2
							c-138.9-17.8-241.6-98.2-323.8-174.6c-11.1-10.3-22.4-21-33.4-31.3c-77.9-73.6-158.4-149.6-261.1-186.2
							C1355.6,177.2,1308.9,170.3,1260.6,172.5L1260.6,172.5z"/>
					</g>
					<g transform="matrix(-1,0,0,1,2184.3,660.647)">
						<path class="st3" d="M1245.2,176.5c-16,0.7-32.2,2.3-48.5,4.8c-59.9,9.1-121.5,30.2-183.1,62.6c-5,2.6-10.1,5.4-15.3,8.2
							c-57.6,31.5-112.6,69.5-165.9,106.3c-52.7,36.4-107.2,74-165.1,106.2c-81.4,45.4-161.2,63.5-236.9,66.8
							c-72,3.1-140.3-7.1-202.9-20.1l-0.1,0.5c87.7,18.2,159.2,24.2,225.2,19c76.2-6,146.5-27.5,214.9-65.7
							c58-32.2,112.5-69.8,165.2-106.2C886,322,941.1,283.9,998.6,252.5c5.2-2.8,10.3-5.6,15.3-8.2c131.1-69,261.4-85.5,376.7-47.7
							c99.9,32.7,178,103.1,253.6,171.2c11.4,10.3,23.2,20.9,34.8,31.2c3.1,2.7,6.1,5.4,9.1,8c51.9,45.1,96.8,77.3,141.3,101.2
							c54.5,29.3,109.1,46.5,166.9,52.7c49.9,5.3,103.9,4.5,165.1-2.4c56.7-6.5,112.1-17.3,163.5-28c23.3-4.9,47.7-10.2,79.2-17.5
							c72.3-16.6,146.2-34.5,225.9-54.8c73.4-18.6,153.4-40.9,244.6-68.1c93.8-28.1,171.5-51.7,244.7-74.2c7.9-2.4,25-6.5,46.7-11.6
							c32.2-7.7,76.4-18.1,112-28.6c42.3-12.5,63.9-22.3,66-30l-0.5-0.1c-4.6,17.2-112.9,42.9-177.6,58.3
							c-21.7,5.2-38.8,9.2-46.7,11.7c-73.1,22.6-150.9,46.2-244.7,74.2c-91.1,27.2-171.1,49.5-244.5,68.1
							c-79.8,20.2-153.7,38.1-225.9,54.8c-31.5,7.2-55.9,12.6-79.2,17.5c-100.5,20.9-217.1,42.3-328.4,30.4
							c-131.8-14.1-229.6-85.6-308-153.7c-3-2.6-6-5.3-9.1-8c-11.6-10.3-23.4-20.9-34.8-31.2c-75.6-68.1-153.8-138.5-253.8-171.3
							C1344.3,180.9,1295.5,174.3,1245.2,176.5L1245.2,176.5z"/>
					</g>
					<g transform="matrix(-1,0,0,1,2185.48,661.648)">
						<path class="st3" d="M1228.4,195.2c-87.9,3.8-166,30.7-224,58.1c-4.9,2.3-10,4.8-15.3,7.3c-62.6,30.5-120.1,67.4-180.9,106.4
							c-49.1,31.5-99.9,64.1-153.7,93.1c-128.8,70-260.7,84.5-441,48.5l-0.1,0.5c87.1,17.4,158.8,22.8,225.7,17
							c76-6.6,146.5-28,215.6-65.6c53.9-29,104.6-61.6,153.7-93.1c60.8-39,118.2-75.9,180.9-106.4c5.3-2.6,10.4-5,15.3-7.3
							c90-42.5,228.3-83.8,376.7-39.5c97.1,29.1,173,93.9,246.5,156.7c11.8,10.1,24.1,20.6,36.1,30.6c3,2.5,6,5,8.9,7.4
							c51.2,42.2,95.2,72.1,138.5,94c53.5,27.2,106.9,42.7,163.3,47.5c101.2,8.6,205.6-9.3,306.5-26.6c7.8-1.4,15.7-2.7,23.5-4
							c26.2-4.5,51.2-8.9,78.8-13.8c90.7-16.3,157.2-28.8,222.3-41.7c76-15.1,158.5-35.4,245.3-60.3
							c92.5-26.7,173.1-51.2,246.1-74.9c8.9-2.9,27.1-7.4,50.1-13.2c67.1-16.8,168.4-42.3,174.9-60.2l-0.5-0.2
							c-2.8,7.6-24.6,17.8-64.8,30.3c-34.6,10.7-76.2,21.2-109.7,29.6c-23,5.8-41.2,10.4-50.1,13.2
							c-73.1,23.7-153.6,48.2-246.1,74.9c-86.8,24.9-169.3,45.2-245.2,60.3c-65.1,12.9-131.6,25.4-222.3,41.7
							c-27.6,4.9-52.5,9.3-78.8,13.8c-7.8,1.3-15.6,2.7-23.5,4c-100.9,17.3-205.2,35.2-306.4,26.6c-127.5-10.9-224-77.6-301.4-141.5
							c-2.9-2.4-6-4.9-8.9-7.4c-12-10.1-24.3-20.5-36.1-30.6c-73.5-62.8-149.4-127.7-246.7-156.8C1328.6,198,1277,193,1228.4,195.2
							L1228.4,195.2z"/>
					</g>
					<g transform="matrix(-1,0,0,1,2186.66,671.346)">
						<path class="st3" d="M1208.8,205.1c-10.2,0.4-20.5,1.2-30.8,2.2c-61.6,6-123.1,21.7-183,46.7c-4.8,2-9.8,4.1-15.3,6.5
							C910.1,290.4,846,328.6,778.1,369c-43.7,26.1-89,53-136.6,78.1c-132,69.5-264.2,84.5-442.1,50.3l-0.1,0.6
							c86.3,16.6,158.2,21.3,226.2,15c75.6-7.1,146.4-28.5,216.4-65.3c47.7-25.1,92.9-52,136.7-78.1c67.9-40.4,132-78.6,201.5-108.4
							c5.5-2.3,10.5-4.5,15.3-6.5c88.1-36.9,225-72.2,376.7-31.2c94.4,25.5,168.2,85,239.6,142.6c12.2,9.8,24.8,20,37.2,29.7
							c3,2.3,5.9,4.6,8.8,6.8c50.6,39.2,93.7,66.8,135.6,86.9c52.5,25.1,104.8,38.9,159.6,42.4c85.2,5.4,174-7.8,259.9-20.6
							c23.6-3.5,48-7.1,71.5-10.2c23.3-3.1,50.9-6.7,78.4-10.2c17.2-2.2,34.3-4.4,51-6.5c57-7.2,110.9-14.1,167.7-22.2
							c76.7-11,159.4-28.6,246.1-52.5c91.4-25.3,172.3-50.1,247.5-75.6c9.8-3.3,29.8-8.6,52.9-14.8c65.4-17.3,164.1-43.5,172.4-61.9
							l-0.6-0.3c-8.2,18.1-106.8,44.2-172,61.5c-23.1,6.1-43.1,11.4-52.9,14.8c-75.2,25.5-156.1,50.3-247.5,75.6
							c-86.6,23.8-169.3,41.5-246,52.5c-56.8,8.1-110.7,15-167.7,22.2c-16.6,2.1-33.8,4.3-51,6.5c-27.5,3.5-55.1,7.1-78.4,10.2
							c-23.5,3.1-47.9,6.7-71.5,10.2c-85.9,12.8-174.7,26-259.8,20.6c-123.3-7.8-218.3-69.7-294.9-129.2c-2.9-2.2-5.8-4.5-8.8-6.8
							c-12.4-9.7-25-19.9-37.2-29.7c-71.4-57.6-145.2-117.1-239.8-142.7C1319.7,208.6,1264.9,202.7,1208.8,205.1L1208.8,205.1z"/>
					</g>
					<g transform="matrix(-1,0,0,1,2187.84,691.759)">
						<path class="st3" d="M1186.1,204.3c-5.8,0.3-11.6,0.6-17.5,1c-62.6,4.4-124.1,17.4-182.8,38.8c-4.7,1.7-9.7,3.6-15.3,5.6
							c-77.7,28.8-149.7,68.7-225.9,111c-37.2,20.6-75.7,42-116,62.6c-134.9,69-267.4,84.6-443.3,52.1l-0.1,0.7
							c41.5,7.7,79.4,12.5,115.8,14.8c38.9,2.4,75.2,1.8,110.8-1.8c75.3-7.6,146.3-28.9,217.1-65.1c40.3-20.6,78.8-41.9,116-62.6
							C821,319,893,279.2,970.7,250.3c5.6-2.1,10.6-3.9,15.3-5.6c121.2-44.1,255-52.3,376.7-23c91.7,22.1,163.4,76.3,232.8,128.7
							c12.5,9.4,25.4,19.2,38.1,28.5c2.9,2.1,5.8,4.2,8.6,6.3c50.6,36.8,91.6,61.3,132.8,79.6c51.6,22.9,102.6,35.1,156,37.3
							c73.1,3,150.1-7.5,224.5-17.7c35.9-4.9,73-10,108.4-13.3c26.6-2.5,52.8-4.7,78-6.6c29-2.2,57.6-4.1,85.3-6
							c42.1-2.9,85.6-5.8,129.8-9.6c76.7-6.6,159.7-21.6,246.8-44.6c88.9-23.7,172.7-49.4,248.9-76.3c10.7-3.8,31.4-9.6,55.2-16.2
							c67.6-18.9,160.3-44.8,170.4-63.6l-0.6-0.3c-10,18.6-106.3,45.5-170,63.3c-23.9,6.7-44.5,12.4-55.3,16.2
							c-76.3,26.9-160,52.6-248.9,76.3c-87.1,23-170.1,38-246.7,44.6c-44.2,3.8-87.7,6.8-129.8,9.6c-27.7,1.9-56.3,3.8-85.3,6
							c-25.2,1.8-51.4,4.1-78,6.6c-35.4,3.3-72.5,8.4-108.4,13.3c-74.4,10.2-151.3,20.7-224.4,17.7
							c-118.8-4.9-208.8-59.1-288.4-116.9c-2.8-2-5.7-4.1-8.6-6.2c-12.7-9.3-25.6-19.1-38.1-28.5
							c-69.4-52.5-141.2-106.8-233.1-128.9C1305.6,207.3,1246.2,201.7,1186.1,204.3L1186.1,204.3z"/>
					</g>
					<g transform="matrix(-1,0,0,1,2189.02,708.674)">
						<path class="st3" d="M1158.1,206.8c-62.7,2.7-124.2,13-181.6,30.8c-4.5,1.4-9.3,2.9-15.3,4.8c-87.8,27.5-169.6,70-256.2,114.9
							c-28.8,14.9-58.6,30.4-89.3,45.7c-136,67.7-273.1,84.3-444.5,53.9l-0.1,0.7c83.9,14.9,158.2,18.5,227.2,11
							c75-8.1,146.2-29.4,217.8-65c30.7-15.3,60.5-30.7,89.3-45.7c86.6-44.9,168.4-87.4,256.1-114.9c6-1.9,10.9-3.4,15.3-4.8
							c116.6-36.1,250.4-41.3,376.7-14.8c89.1,18.7,158.8,67.8,226.2,115.2c12.7,8.9,25.9,18.2,38.8,27c2.7,1.9,5.5,3.7,8.3,5.6
							l0.2,0.1c79.1,53.1,168.1,102.6,282.2,104.7c63.7,1.2,131.1-7.7,196.3-16.4c45.8-6.1,93.2-12.3,138-14.9
							c26.1-1.5,51.5-2.5,77.6-3c33.2-0.7,65.7-0.9,97.1-1.1c37-0.2,75.3-0.4,114.3-1.5c76.3-2.2,159.6-14.6,247.6-36.8
							c87.8-22.5,172.1-48.4,250.4-77c11.6-4.2,32.7-10.4,57.1-17.6c66.2-19.4,156.9-46.1,168.9-65.4l-0.6-0.4
							c-11.8,19.1-102.4,45.7-168.5,65.1c-24.4,7.2-45.5,13.4-57.1,17.6c-78.3,28.6-162.5,54.5-250.3,77
							c-87.9,22.2-171.1,34.6-247.4,36.8c-39.1,1.1-77.3,1.3-114.3,1.5c-31.4,0.2-63.9,0.3-97.1,1.1c-26.1,0.5-51.5,1.5-77.6,3
							c-44.8,2.5-92.2,8.8-138.1,14.9c-65.2,8.6-132.6,17.6-196.2,16.4c-113.9-2.1-202.8-51.5-281.8-104.6l-0.2-0.1
							c-2.7-1.8-5.5-3.7-8.2-5.6c-13-8.8-26.1-18.1-38.8-27c-67.5-47.5-137.2-96.5-226.5-115.3C1289.3,209.3,1223,204,1158.1,206.8
							L1158.1,206.8z"/>
					</g>
					<g transform="matrix(-1,0,0,1,2190.2,725.786)">
						<path class="st3" d="M1123.2,208.8c-55.4,2.4-107.8,9.8-156,22.1c-5.1,1.3-10.3,2.6-15.4,3.9c-45.7,11.7-92.2,28-146.3,51.3
							c-48.3,20.7-96.7,44.4-147.9,69.6c-17.8,8.7-36.2,17.7-54.9,26.8c-139.1,67.2-276.6,84.4-445.7,55.7l-0.1,0.8
							c83.2,14.1,157.7,17.1,227.7,9c74.6-8.6,146-29.8,218.5-64.8c18.7-9,37.1-18.1,54.9-26.8c104.1-51,194.1-95.1,294.1-120.8
							c5.1-1.3,10.2-2.6,15.4-3.9c110.2-28.1,244-30.4,376.8-6.5c86.4,15.6,154.2,59.5,219.7,101.9c12.9,8.4,26.3,17,39.4,25.2
							c2.3,1.4,4.6,2.8,6.9,4.2l1.4,0.8c33.4,20.6,78.1,46.7,127.2,65.1c49.7,18.6,98.3,27.6,148.5,27.4
							c56-0.3,115.5-8.2,173.1-15.8c54.1-7.2,110.1-14.7,162.6-15.6c25.7-0.5,51-0.3,77.2,0.7c34.9,1.2,68.7,3.2,101.5,5.1
							c34.3,2.1,69.9,4.2,106.4,5.3c75.9,2.3,159.4-7.5,248.3-29c86.9-21.3,171.6-47.4,251.8-77.7c12.5-4.7,33.8-11.3,58.6-18.9
							c65-20,154-47.4,167.7-67.3l-0.7-0.5c-13.6,19.7-102.4,47-167.3,67c-24.8,7.6-46.1,14.2-58.6,18.9
							c-80.2,30.2-164.9,56.3-251.7,77.6c-88.8,21.5-172.3,31.3-248.1,29c-36.5-1.1-72-3.2-106.3-5.3c-32.7-2-66.5-4-101.5-5.1
							c-26.2-1-51.5-1.2-77.2-0.7c-52.6,1-108.6,8.4-162.7,15.6c-57.6,7.7-117.1,15.6-173,15.8c-109.6,0.5-197.1-44.1-275.3-92.3
							l-1.4-0.8c-2.3-1.4-4.6-2.8-6.9-4.2c-13.2-8.2-26.5-16.9-39.4-25.2c-65.6-42.5-133.4-86.5-220-102
							c-65.4-11.8-130.9-17.3-194.6-16.3C1140.7,208.2,1131.9,208.5,1123.2,208.8L1123.2,208.8z"/>
					</g>
					<g transform="matrix(-1,0,0,1,2191.38,742.595)">
						<path class="st3" d="M1079.5,210.5c-43.8,1.9-84.5,6.6-121.6,14l-1.7,0.3c-4.6,0.9-9.1,1.8-13.6,2.7
							c-115.2,23-220.3,72.4-342,129.6l-10.7,5c-142.3,66.8-280.2,84.6-446.9,57.5l-0.1,0.8c166.9,27.1,304.9,9.4,447.4-57.6l10.7-5
							c121.7-57.2,226.8-106.5,341.8-129.5c4.5-0.9,9.1-1.8,13.6-2.7l1.7-0.3c101.9-20.4,232.2-19.8,376.8,1.7
							c83.8,12.5,149.6,51.3,213.3,88.9c13.1,7.7,26.6,15.7,40,23.2c2,1.1,3.9,2.2,5.9,3.3l2.2,1.2c35.2,19.7,77.4,41.9,124.4,57.7
							c48.8,16.4,96.1,23.8,144.8,22.4c49.5-1.4,102.3-8.7,153.4-15.7c61.3-8.4,124.7-17.1,183.8-16c25.6,0.5,50.7,1.9,76.8,4.3
							c35.5,3.2,69.6,7.6,102.6,11.8c32.7,4.2,66.5,8.5,101.5,11.7c75.3,6.8,159.1-0.4,249.1-21.2c86-20.2,171.2-46.6,253.2-78.3
							c13.2-5.1,34.7-12.1,59.6-20.1c63.9-20.6,151.4-48.8,167-69.2l-0.7-0.5c-15.4,20.3-102.8,48.4-166.6,69
							c-24.9,8-46.4,15-59.7,20.1c-82,31.8-167.2,58.1-253.1,78.3c-89.9,20.8-173.6,27.9-248.8,21.1c-35-3.1-68.8-7.5-101.5-11.7
							c-33-4.2-67.1-8.6-102.7-11.8c-26.1-2.4-51.2-3.8-76.8-4.3c-59.1-1.1-122.6,7.6-184,16c-51,7-103.8,14.3-153.3,15.7
							c-110.4,3.1-196.6-39.7-268.7-80l-2.2-1.2c-2-1.1-3.9-2.2-5.9-3.3c-13.3-7.5-26.9-15.5-40-23.2
							c-63.8-37.6-129.7-76.5-213.6-89c-68.6-10.2-134.2-15.8-194.9-16.6C1119.4,209.4,1099.1,209.7,1079.5,210.5L1079.5,210.5z"/>
					</g>
					<g transform="matrix(-1,0,0,1,2192.56,751.736)">
						<path class="st3" d="M1027.3,218.7c-28.2,1.2-54.3,3.6-78.7,7.2c-5.2,0.8-10.3,1.5-15.4,2.2c-55.7,8-111.3,22.4-174.8,45.3
							c-56,20.2-113.1,45.1-181.5,76.3C431.2,416.1,293,434.4,128.9,409l-0.1,0.9c59,9.1,114.6,12.6,168.5,10.3
							c96.2-4.2,186.6-27,280.1-69.7C700.6,294.3,812.5,246.3,933.4,229c5.1-0.7,10.2-1.5,15.4-2.2c114.8-16.7,254.9-4.4,376.8,9.9
							c81.2,9.5,145.2,43.3,207,76.1c13.2,7,26.9,14.2,40.4,21c1.7,0.9,3.4,1.7,5.1,2.5l2.8,1.4c34.8,17.4,76.5,37,121.6,50.4
							c47.8,14.2,94,19.9,141.1,17.4c43.9-2.3,90.8-9.1,136.1-15.6c67.7-9.8,137.7-19.9,202.5-16.3c24.9,1.4,49.9,4,76.4,7.9
							c35.2,5.3,68.8,12,101.3,18.4c31.9,6.3,64.9,12.9,99.3,18.1c74.7,11.2,158.8,6.8,249.9-13.3c84-18.9,172-46.2,254.6-79
							c13.9-5.5,35.4-12.8,60.3-21.1c66.5-22.4,149.2-50.2,166.7-71.3l-0.7-0.6c-17.3,20.9-103.4,49.9-166.3,71.1
							c-24.9,8.4-46.4,15.6-60.3,21.2c-82.6,32.8-170.6,60.1-254.5,79c-90.9,20.1-174.9,24.6-249.5,13.3
							c-34.4-5.2-67.3-11.7-99.2-18.1c-32.5-6.5-66.1-13.2-101.3-18.4c-26.5-4-51.5-6.6-76.4-7.9c-64.9-3.7-135,6.5-202.7,16.3
							c-45.3,6.6-92.2,13.3-136,15.6c-1.2,0.1-2.4,0.1-3.6,0.2c-104,4.5-188-32.6-258.6-67.9l-2.8-1.4c-1.7-0.8-3.4-1.7-5.1-2.5
							c-13.5-6.8-27.1-14-40.4-21c-62-32.8-126-66.6-207.4-76.2c-80.1-9.4-140.3-14.6-195.1-16.8
							C1093.2,217.3,1059,217.2,1027.3,218.7L1027.3,218.7z"/>
					</g>
					<g transform="matrix(-1,0,0,1,2193.74,774.165)">
						<path class="st3" d="M973.2,211.6c-11.5,0.5-22.8,1.2-33.8,2.2c-5.2,0.5-10.3,0.9-15.4,1.4c-56.5,5-114.2,17-176.4,36.7
							c-51.7,16.4-108.3,38.6-183.6,71.9c-97.2,43-189.8,66-287.2,70.3c-52.2,2.3-105.7-0.8-162.1-9.2l-0.1,1
							c81.4,12,156.4,13.1,229.3,3.2c73-9.9,145.1-31,220.5-64.3c134-59.3,240.8-98.2,359.7-108.6c5.1-0.4,10.2-0.9,15.4-1.4
							c91.2-8.3,199.3,1.8,303.9,11.5c23.9,2.2,48.7,4.5,72.9,6.6c78.5,6.7,140.7,35.5,200.8,63.5c13.4,6.2,27.2,12.6,40.8,18.6
							c1.5,0.7,3,1.3,4.5,2c1.1,0.5,2.1,0.9,3.2,1.4c36.3,15.9,75.8,32,118.8,43c46.9,12,91.8,16.1,137.3,12.5
							c38.9-3,78.6-9.1,120.6-15.6c73.5-11.3,149.5-23,219.5-16.5c24.9,2.3,49.8,6.1,75.9,11.5c35.1,7.3,68.3,16.4,100.4,25.2
							c31,8.5,63,17.2,96.6,24.4c74.1,15.7,158.4,13.9,250.6-5.5c83.3-17.9,171.8-45.4,256.1-79.7c14.5-5.9,35.8-13.4,60.5-22.1
							c65.7-23.1,147.4-51.8,166.8-73.6l-0.7-0.6c-19.2,21.6-100.8,50.3-166.4,73.3c-24.7,8.7-46,16.2-60.5,22.1
							c-84.2,34.3-172.7,61.8-255.9,79.7c-92.1,19.4-176.2,21.2-250.2,5.5c-33.6-7.1-65.6-15.9-96.5-24.4
							c-32.1-8.8-65.3-17.8-100.4-25.2c-26.2-5.5-51.1-9.3-76-11.5c-70.1-6.6-146.2,5.2-219.7,16.5c-42,6.5-81.7,12.6-120.5,15.6
							c-100.9,7.8-181.6-23.1-255.7-55.5c-1.1-0.5-2.1-0.9-3.2-1.4c-1.5-0.7-3-1.3-4.5-2c-13.6-6-27.4-12.4-40.8-18.6
							c-60.2-28-122.4-56.8-201.1-63.5c-24.2-2.1-49-4.4-72.9-6.6C1151.4,216.8,1056.7,208,973.2,211.6L973.2,211.6z"/>
					</g>
					<g transform="matrix(-1,0,0,1,2194.92,798.643)">
						<path class="st3" d="M907,200.6c-55.4,2.4-111.2,11.5-170.2,27.8c-54.2,15-113.2,36.4-185.7,67.6
							c-153,65.8-292,85.1-450.4,62.9l-0.1,1c158.7,22.3,297.8,2.9,451-63c146.2-62.8,249.9-90.7,355.2-95.3c2.7-0.1,5.3-0.2,8-0.3
							c5.1-0.2,10.2-0.3,15.4-0.5c67.7-2.5,142.9,5.2,222.5,13.3c50.6,5.1,103,10.4,154.4,13.1c75.9,4,136.2,27.9,194.6,51
							c13.5,5.3,27.4,10.9,41.1,16c1.3,0.5,2.7,1,4,1.5c1.2,0.4,2.3,0.8,3.5,1.3c33.6,12.5,73.1,26.6,116,35.6
							c46,9.7,89.7,12.2,133.6,7.7c34.3-3.5,69.3-9.3,106.3-15.5c78.9-13.1,160.5-26.6,235.2-16.9c24.9,3.2,49.7,8.2,75.5,15.2
							c34.8,9.4,67.4,20.9,98.9,31.9c30.2,10.6,61.4,21.6,94.4,30.7c73.5,20.2,158,21,251.4,2.3c82.6-16.9,171.6-44.7,257.5-80.4
							c15-6.2,35.9-13.9,60.2-22.8c65.1-23.9,146.1-53.5,167.4-76l-0.7-0.7c-21.2,22.3-102,52-167,75.8
							c-24.3,8.9-45.2,16.6-60.2,22.8c-85.8,35.7-174.8,63.5-257.3,80.3c-93.2,18.7-177.6,17.9-250.9-2.3
							c-32.9-9.1-64.1-20-94.3-30.6c-31.6-11.1-64.2-22.5-99-31.9c-25.9-7-50.7-12-75.7-15.2c-74.9-9.8-156.5,3.8-235.5,16.9
							c-37,6.1-72,11.9-106.2,15.5c-95.9,9.9-175.7-15.9-249.2-43.2c-1.2-0.4-2.3-0.9-3.5-1.3c-1.3-0.5-2.7-1-4-1.5
							c-13.7-5.1-27.6-10.6-41.1-16c-58.4-23.2-118.9-47.1-194.9-51.1c-51.4-2.7-103.8-8-154.4-13.1
							c-79.7-8.1-154.9-15.7-222.6-13.3c-5.2,0.2-10.3,0.4-15.4,0.5C912.1,200.4,909.5,200.5,907,200.6L907,200.6z"/>
					</g>
					<g transform="matrix(-1,0,0,1,2196.1,821.051)">
						<path class="st3" d="M860.5,188c-44.2,1.9-88.6,8.2-134.6,19c-56.5,13.3-116.2,33.4-187.8,63.2
							c-157,65.4-296.3,85.4-451.6,64.7l-0.1,1.1c155.5,20.7,295,0.8,452.2-64.7c145-60.4,254.7-85.1,366.8-82.6
							c4.8,0.1,10.1,0.2,15.5,0.3c53.1,1,111.3,8.4,172.8,16.2c66.7,8.5,135.7,17.2,204.1,18.5c73.2,1.4,131.7,20.4,188.4,38.8
							c13.6,4.4,27.7,9,41.5,13.2c1.2,0.4,2.4,0.7,3.6,1.1c1.2,0.4,2.5,0.7,3.7,1.1c35.2,10.6,72.9,21.5,113.2,28.1
							c45.1,7.4,87.6,8.3,129.9,2.8c29.9-3.9,60.5-9.3,92.8-15.1c84-15.1,170.9-30.7,250.1-17.4c25,4.1,49.6,10.3,75.1,18.8
							c34.4,11.4,66.4,25.3,97.3,38.6c29.5,12.8,59.9,26,92.4,37c73.2,24.8,158,28.3,252.2,10.2c81.3-15.6,170.8-43.7,258.9-81.1
							c15.3-6.5,36.7-14.7,59.3-23.3c64.7-24.7,145.2-55.4,168.6-78.7l-0.8-0.8c-23.2,23.2-103.6,53.8-168.2,78.5
							c-22.6,8.6-44,16.8-59.3,23.3c-88,37.4-177.5,65.4-258.7,81c-94,18.1-178.6,14.7-251.6-10.1c-32.4-11-62.9-24.2-92.3-36.9
							c-30.9-13.4-62.9-27.2-97.4-38.7c-25.6-8.5-50.2-14.7-75.3-18.8c-28.4-4.8-57.9-5.8-87.8-4.5c-53.6,2.3-108.7,12.2-162.7,21.9
							c-32.3,5.8-62.8,11.3-92.8,15.1c-90.8,11.7-166.6-7.9-242.7-30.9c-1.2-0.4-2.5-0.7-3.7-1.1c-1.2-0.4-2.4-0.7-3.6-1.1
							c-13.9-4.2-27.9-8.7-41.5-13.2c-56.7-18.4-115.3-37.5-188.7-38.8c-68.3-1.3-137.3-10-204-18.5
							c-61.6-7.8-119.7-15.2-172.9-16.2c-5.4-0.1-10.6-0.2-15.4-0.3C890.4,187.2,875.5,187.4,860.5,188L860.5,188z"/>
					</g>
					<g transform="matrix(-1,0,0,1,2197.28,834.859)">
						<path class="st3" d="M816.6,181.9c-33.5,1.5-67.2,5.5-101.5,12.2c-57.6,11.2-119.7,30.5-189.9,58.9
							C364,318.1,224.4,338.6,72.4,319.5l-0.1,1.1c79.5,10,155.1,9.2,230.9-2.7c70.5-11,143.3-31.9,222.5-63.9
							c143-57.8,253.8-78.6,370.3-69.6l0.5,0c4.9,0.4,9.9,0.8,15,1.1c43.3,3.2,89.9,10.7,139.4,18.7
							c77.4,12.5,157.5,25.4,237.6,24.2c70.5-1.1,127.2,13.1,182,26.7c13.8,3.4,28,7,42,10.2c1.1,0.3,2.2,0.5,3.3,0.7
							c1.3,0.3,2.6,0.6,3.9,0.9c31.2,7.2,70,16.1,110.4,20.6c44.2,5,85.5,4.4,126.1-2c25.8-4,52-9.1,79.7-14.5
							c89-17.3,181-35.3,264.6-18.2c25.1,5.1,49.5,12.4,74.7,22.4c34,13.5,65.2,29.6,95.4,45.3c28.8,14.9,58.6,30.4,90.6,43.3
							c37.1,15,77.9,24,121.4,26.7c40.9,2.6,85.2-0.4,131.5-8.7c81.5-15,171.5-43.3,260.3-81.8c15.5-6.7,36-14.8,57.7-23.4
							c64.6-25.6,145-57.5,170.6-81.7l-0.8-0.8c-25.4,24.1-105.7,55.9-170.2,81.5c-21.7,8.6-42.2,16.8-57.7,23.5
							c-88.7,38.4-178.7,66.7-260.1,81.7c-95.5,17.2-180.4,11.2-252.3-17.9c-32-12.9-61.7-28.4-90.5-43.3
							c-30.2-15.7-61.5-31.9-95.5-45.4c-25.3-10-49.8-17.4-74.9-22.4c-37.5-7.7-80.4-8.9-131-3.7c-44.8,4.6-90.1,13.4-134,21.9
							c-27.7,5.4-54,10.5-79.7,14.5c-92.2,14.4-168.7-3.1-236.1-18.6c-1.3-0.3-2.6-0.6-3.9-0.9c-1.1-0.2-2.2-0.5-3.3-0.7
							c-14-3.2-28.3-6.7-42-10.2c-54.9-13.7-111.7-27.9-182.3-26.8c-80,1.3-160-11.7-237.4-24.1c-49.4-8-96.1-15.5-139.5-18.7
							c-5.1-0.4-10.1-0.8-15-1.1l-0.5,0C869.4,181.3,843,180.8,816.6,181.9L816.6,181.9z"/>
					</g>
					<g transform="matrix(-1,0,0,1,2198.46,849.417)">
						<path class="st3" d="M775.8,173.3c-23.7,1-47.4,3.4-71.4,7.1c-59,9.2-121.9,27-192,54.5c-167.9,65.7-303.7,86.2-454,68.3
							l-0.1,1.2c78.9,9.4,154.6,7.9,231.4-4.6c69.4-11.3,142.4-32.1,223.2-63.8c141.8-55.5,253.6-72.5,373.9-56.6l3.2,0.4
							c4.1,0.5,8.2,1.1,12.3,1.6c36.2,4.7,74.8,12.5,115.6,20.7c41.6,8.4,84.6,17.1,128.5,23.2c49.8,6.9,93.3,9.2,132.9,7.2
							c67.7-3.4,122.5,5.9,175.5,14.9c14,2.4,28.5,4.9,42.8,7c1,0.1,1.9,0.3,2.9,0.4c1.4,0.2,2.7,0.4,4.1,0.6l4.4,0.7
							c33.6,5.2,68.3,10.5,105.7,12.6c42.4,2.4,81.6,0.1,119.9-6.9c21.7-4,43.6-8.7,66.8-13.6c93.9-20,191-40.6,278.9-19.4
							c25.1,6,49.4,14.5,74.3,26c33.5,15.5,64,34,93.5,51.9c28.2,17.1,57.3,34.8,88.9,49.7c36.8,17.4,77.7,28.2,121.4,32.2
							c41,3.8,85.5,1.6,132.3-6.4c41.9-7.3,86.1-18.4,131.5-32.8c42.7-13.6,86.5-30.3,130.3-49.6c15.3-6.7,34.6-14.7,55.1-23.1
							c64.8-26.7,145.5-59.9,173.5-85.2l-0.8-0.9c-27.8,25.2-108.4,58.4-173.1,85c-20.5,8.4-39.8,16.4-55.1,23.2
							c-90.1,39.8-180.6,68.2-261.5,82.4c-96.7,16.5-181.8,7.8-253-25.8c-31.5-14.9-60.7-32.6-88.8-49.7c-29.5-17.9-60-36.5-93.6-52
							c-25-11.5-49.3-20-74.5-26.1c-39.4-9.5-84.7-11.3-138.3-5.6c-47.3,5.1-95,15.2-141.1,25c-23.2,4.9-45.2,9.6-66.8,13.6
							c-85.6,15.8-159.7,4.4-225.2-5.7l-4.5-0.7c-1.4-0.2-2.7-0.4-4.1-0.6c-1-0.1-1.9-0.3-2.9-0.4c-14.3-2.1-28.7-4.6-42.7-7
							c-51.9-8.8-105.6-18-171.5-15.1c-1.4,0.1-2.8,0.1-4.2,0.2c-88.6,4.5-180.2-14-261.1-30.4c-40.9-8.3-79.5-16.1-115.7-20.7
							c-4.1-0.5-8.2-1.1-12.3-1.6l-3.2-0.4C849.4,173.4,812.6,171.7,775.8,173.3L775.8,173.3z"/>
					</g>
					<g transform="matrix(-1,0,0,1,2199.64,863.789)">
						<path class="st3" d="M738.2,163.4c-14.9,0.6-29.7,1.9-44.7,3.6c-60.3,7.1-123.8,23.5-194.2,50.2
							c-121.7,46.2-225.3,70.2-327.1,74.6c-42.6,1.9-84.9,0.3-128.1-4.6l-0.1,1.3c78.3,8.8,154.2,6.6,231.9-6.5
							c69-11.7,140.2-31.9,223.8-63.6c141-53.5,253.9-66.6,377.5-43.6c1.9,0.4,3.9,0.7,5.9,1.1c3.2,0.6,6.4,1.2,9.6,1.8
							c30.9,5.7,63.5,13.7,98.1,22.3c86.1,21.3,183.8,45.3,279,37c64.6-5.6,117.4-1.1,168.4,3.3c14.4,1.2,29.3,2.5,44,3.5
							c0.9,0.1,1.8,0.1,2.6,0.2c1.4,0.1,2.8,0.2,4.2,0.3c4.5,0.3,9.1,0.7,13.7,1c61.4,4.6,130.9,9.8,209.7-7
							c17.5-3.7,35.1-7.8,53.8-12.1c94.3-21.9,201.1-46.7,293.4-21.1c25.1,6.9,49.3,16.6,73.9,29.6c33,17.5,62.8,38.3,91.5,58.5
							c27.6,19.3,56.1,39.4,87.3,56.2c36.6,19.7,77.4,32.4,121.3,37.7c41,4.9,85.8,3.6,133.2-4c41.9-6.9,86.4-17.9,132.2-32.6
							c42.7-13.7,86.8-30.7,131-50.6c14.7-6.6,32.4-14.2,51.2-22.2c65.5-28,147.1-62.8,177.7-89.4l-0.8-1
							c-30.5,26.5-111.9,61.2-177.3,89.2c-18.8,8-36.5,15.6-51.2,22.2c-91.5,41.1-182.4,69.8-262.9,83
							c-97.9,15.8-183.2,4.5-253.7-33.6c-31.2-16.8-59.6-36.8-87.2-56.1c-28.8-20.2-58.6-41.1-91.6-58.6
							c-24.6-13-48.9-22.8-74.1-29.7c-41.4-11.5-89.1-13.9-145.8-7.4c-49.9,5.7-99.9,17.3-148.2,28.5c-18.7,4.3-36.3,8.4-53.7,12.1
							c-78.7,16.8-148.1,11.5-209.4,6.9c-4.6-0.3-9.2-0.7-13.7-1c-1.4-0.1-2.8-0.2-4.2-0.3c-0.9-0.1-1.8-0.1-2.6-0.2
							c-14.7-1-29.6-2.3-44-3.5c-42.9-3.7-87.1-7.5-138.6-5.3c-9.7,0.4-19.7,1.1-30,2c-95,8.3-192.5-15.8-278.6-37
							c-34.6-8.5-67.3-16.6-98.2-22.3c-3.2-0.6-6.4-1.2-9.6-1.8c-2-0.4-3.9-0.7-5.9-1.1C830.3,164.8,784.4,161.4,738.2,163.4
							L738.2,163.4z"/>
					</g>
					<g transform="matrix(-1,0,0,1,2200.82,886.866)">
						<path class="st3" d="M703.8,143.6c-7,0.3-14,0.7-21,1.3c-61.4,4.9-125.7,20-196.3,45.9c-131.7,48.4-278.1,90.5-456.4,71.9
							l-0.1,1.3c77.7,8.1,153.8,5.4,232.5-8.4c67.4-11.8,138.8-32,224.5-63.5c77.4-28.4,148.2-43.9,217.3-47
							c54.8-2.4,108.6,3.1,163.8,16.3c2.8,0.7,5.6,1.3,8.4,2c2.4,0.6,4.7,1.1,7.1,1.7c26.9,6.4,55.1,14.7,84.9,23.5
							c90,26.5,192,56.5,292.2,44c61.1-7.6,111.4-7.7,160.1-7.8c15.9,0,31-0.1,46.5-0.4c0.8,0,1.6,0,2.4,0c1.4,0,2.9-0.1,4.3-0.1
							c8-0.1,15.8-0.1,24.2-0.2c56.8-0.3,121.2-0.7,192.8-18.1c13.1-3.2,26.3-6.5,40.2-10.1c99.2-25.2,211.6-53.7,308.4-23.3
							c25.4,7.9,49.4,18.8,73.4,33.2c32.7,19.4,61.7,42.7,89.8,65.2c26.9,21.5,54.6,43.8,85.4,62.5c36.3,22.1,77.1,36.7,121.3,43.2
							c41,6.1,86.1,5.5,134-1.7c41.9-6.5,86.7-17.4,133-32.3c42.7-13.8,87-31.1,131.7-51.5c13.5-6.1,28.9-13,45.3-20.2
							c66.9-29.6,150.2-66.3,183.9-94.5l-0.8-1c-33.6,28.1-116.8,64.8-183.6,94.3c-16.4,7.2-31.8,14.1-45.3,20.2
							c-94.1,42.9-183.1,71.1-264.3,83.7c-99.1,15-184.7,1.1-254.4-41.4c-30.7-18.7-58.4-40.9-85.2-62.4
							c-28.1-22.5-57.2-45.9-89.9-65.3c-24.1-14.5-48.2-25.4-73.7-33.4c-97.2-30.5-209.8-1.9-309.1,23.3
							c-13.9,3.5-27.1,6.9-40.2,10.1c-71.4,17.4-135.7,17.7-192.4,18c-8.3,0-16.2,0.1-24.2,0.2c-1.4,0-2.9,0-4.3,0.1
							c-0.8,0-1.6,0-2.3,0c-15.5,0.3-30.5,0.3-46.5,0.4c-48.7,0.1-99,0.2-160.3,7.8c-100,12.4-201.8-17.5-291.7-44
							c-29.9-8.8-58.1-17.1-85-23.5c-2.4-0.6-4.8-1.1-7.1-1.7c-2.8-0.7-5.6-1.4-8.4-2C812.2,146.7,758.1,141.2,703.8,143.6
							L703.8,143.6z"/>
					</g>
					<g transform="matrix(-1,0,0,1,2202,886.698)">
						<path class="st3" d="M672.1,145.9H672c-62.5,2.7-127.4,16.3-198.5,41.6C316.8,243.3,178.9,277.1,16,261.2l-0.1,1.4
							c77.1,7.5,153.3,4.1,233-10.4c66.3-12.1,135.8-31.6,225.2-63.4c138.9-49.4,257.5-54.8,384.6-17.7c3.6,1.1,7.3,2.1,11,3.2
							l4.6,1.4c23.7,7,48.5,15.5,74.8,24.6c92.9,32,198.2,68.2,302.4,51.2c56.1-9.1,102.7-13.6,147.9-17.9
							c18.1-1.7,35.3-3.4,52.9-5.3l2-0.2c1.5-0.2,3-0.3,4.4-0.5c11.9-1.2,23.8-2.3,36.5-3.4c51.7-4.6,110.3-9.7,173.9-27.2
							c8.5-2.3,16.9-4.7,25.8-7.2c104.3-29.1,222.5-62.1,324.2-26.5c25.4,8.9,49.3,20.9,73,36.8c32.1,21.4,60.4,47,87.7,71.7
							c26.3,23.8,53.4,48.4,83.9,69.1c36,24.5,76.8,40.9,121.2,48.8c41.1,7.3,86.4,7.5,134.8,0.6c42-6.1,87-16.9,133.7-32.1
							c42.7-13.9,87.2-31.5,132.4-52.4c11.1-5.2,23.2-10.7,36.1-16.5c69.4-31.7,155.9-71,193.4-101.4l-0.9-1.1
							c-37.4,30.2-123.7,69.6-193.1,101.2c-12.9,5.9-25,11.4-36.1,16.5c-95.4,44.2-184.8,72.6-265.7,84.4
							c-100.3,14.3-186.1-2.3-255.1-49.2c-30.4-20.6-57.5-45.2-83.7-68.9c-27.4-24.8-55.6-50.4-87.9-71.9
							c-23.8-16-47.8-28.1-73.3-37c-45.5-15.9-98.6-19.5-162.1-11c-55.5,7.5-110.1,22.7-162.9,37.4c-8.9,2.5-17.3,4.8-25.8,7.2
							c-63.5,17.4-122,22.6-173.7,27.1c-12.6,1.1-24.6,2.2-36.5,3.4c-1.5,0.2-3,0.3-4.5,0.5l-2,0.2c-17.6,1.9-34.7,3.6-52.8,5.3
							c-45.2,4.3-91.9,8.8-148,17.9c-103.9,16.9-209-19.3-301.8-51.2c-26.3-9-51.1-17.6-74.9-24.6L870,173c-3.7-1.1-7.4-2.2-11-3.2
							C794.8,151.1,733.7,143.2,672.1,145.9L672.1,145.9z"/>
					</g>
					<g transform="matrix(-1,0,0,1,2203.18,884.818)">
						<path class="st3" d="M642.7,149.2c-57.7,2.5-117.4,14.6-182.1,36.8c-166.4,57.2-301.2,89.8-458.8,75.5l-0.1,1.4
							c76.5,6.9,152.9,2.9,233.6-12.3c81.3-15.3,159.8-40.6,225.8-63.3c139.2-47.8,258.9-49.3,388.1-4.7c4.6,1.6,9.1,3.2,13.9,4.9
							l1.7,0.6c21.3,7.5,43.5,16.2,66.9,25.5c95.1,37.6,203,80.3,310.4,58.5c38-7.7,71.4-14.1,103.7-20.3
							c31.5-6.1,61.3-11.8,91.3-17.9l1.8-0.4c1.5-0.3,3-0.6,4.5-0.9c16.6-3.2,33.5-6.1,51.3-9.2c48-8.2,97.5-16.7,152.4-33.6
							c3.4-1,6.8-2.1,10.2-3.1c104.3-32.1,234.1-72.1,341.2-30.7c25.4,9.8,49.2,23,72.6,40.4c31.6,23.4,59,51.2,85.6,78.2
							c25.7,26.1,52.2,53,82.3,75.7c35.7,26.9,76.5,45.1,121.1,54.3c41.1,8.5,86.8,9.4,135.7,2.9c80.7-11,170.7-39.7,267.5-85.2
							c6.7-3.2,13.7-6.4,21-9.8c70.1-32.8,166.1-77.8,208.9-111.2l-0.9-1.1c-42.7,33.3-138.6,78.3-208.6,111.1
							c-7.2,3.4-14.3,6.7-21,9.8c-96.7,45.5-186.5,74.1-267.1,85.1c-101.5,13.5-187.5-5.6-255.8-57c-30-22.6-56.5-49.5-82.2-75.5
							c-26.6-27-54.1-54.9-85.8-78.3c-23.5-17.5-47.4-30.8-73-40.6c-47.9-18.5-104-22.6-171.4-12.5c-58.7,8.8-118.2,27.1-170.7,43.2
							c-3.4,1.1-6.8,2.1-10.2,3.1c-54.8,16.8-104.4,25.3-152.3,33.6c-17.9,3.1-34.8,6-51.4,9.2c-1.5,0.3-3,0.6-4.5,0.9l-1.8,0.4
							c-30,6.2-59.8,11.9-91.3,17.9c-32.3,6.2-65.7,12.6-103.7,20.3c-106.9,21.7-214.6-20.9-309.5-58.5c-23.5-9.3-45.6-18.1-67-25.5
							l-1.7-0.6c-4.8-1.7-9.3-3.3-13.9-4.9c-65-22.4-126.6-33.1-188.4-32.6C655.1,148.7,648.9,148.9,642.7,149.2L642.7,149.2z"/>
					</g>
					<g transform="matrix(-1,0,0,1,2204.36,882.318)">
						<path class="st3" d="M615.2,152.4c-53.3,2.3-108.4,13.1-167.5,32.7c-146.7,48.7-292.2,91.3-460,77.3l-0.1,1.5
							c40.1,3.4,79.3,3.7,119.9,1c37.2-2.5,74.5-7.4,114.2-15.2c77.1-15,154.4-39.2,226.5-63.2c139.7-46.4,260.5-43.9,391.7,8.3
							c5.2,2.1,10.5,4.2,15.6,6.3c19.4,7.9,39.5,16.9,60.7,26.4c48.9,21.9,99.6,44.6,153,59.1c61.1,16.5,114.7,18.8,163.7,6.8
							c74.1-18.1,132.6-36,189.1-53.3l1.4-0.4c1.6-0.5,3.1-1,4.7-1.4c22.5-6.7,45.8-12.6,70.5-18.9c40.2-10.3,81.8-20.9,126.7-36.2
							c101.2-34.5,239.7-81.8,352.8-34.1c25.5,10.7,49.1,25.1,72.2,44.1c31.1,25.3,57.7,55.4,83.5,84.6c25.1,28.3,51,57.6,80.8,82.3
							c35.4,29.2,76.1,49.4,121,59.8c41.2,9.6,87.2,11.4,136.5,5.2c80.4-10.2,170.9-39.1,268.9-85.9c66.9-31.9,179-85.4,230.2-124.3
							l-0.9-1.2c-51.1,38.7-163,92.2-229.9,124.1c-97.9,46.7-188.2,75.6-268.5,85.8c-102.7,12.8-189-9-256.5-64.8
							c-29.7-24.6-55.6-53.8-80.6-82.1c-25.8-29.2-52.5-59.4-83.7-84.7c-23.3-19-47-33.5-72.6-44.3c-49.6-20.9-107.8-25.7-178-14.5
							c-63.5,10.1-128.4,32.3-175.9,48.5c-44.8,15.3-86.4,25.9-126.6,36.2c-24.7,6.3-48.1,12.3-70.6,18.9c-1.6,0.5-3.2,1-4.7,1.4
							l-1.4,0.4c-56.5,17.3-115,35.2-189.1,53.3c-109.3,26.7-219-22.5-315.7-65.8c-21.3-9.5-41.3-18.5-60.7-26.4
							c-5-2.1-10.4-4.2-15.6-6.3c-65.7-26.1-127.8-39.6-189.9-41.3C638.8,151.8,627,151.8,615.2,152.4L615.2,152.4z"/>
					</g>
					<g transform="matrix(-1,0,0,1,2205.54,883.371)">
						<path class="st3" d="M589.3,151.5c-49.4,2.2-100.4,11.8-154.5,29.2c-130.6,41.9-244.7,75.3-367.4,80.6
							c-30.6,1.3-61.7,0.9-93.7-1.5l-0.1,1.5c40.1,3.1,79.4,3.1,120.1,0c37-2.8,74.4-8,114.5-16.1c75.6-15.2,150.6-38.5,227.1-63.1
							c140.4-45.1,262.3-38.5,395.2,21.2c5.5,2.5,11,5,15.6,7.1c17.8,8.2,36.2,17.5,55.7,27.3c47.2,23.7,100.8,50.6,155.1,66.8
							c62.2,18.6,116.7,20.7,166.6,6.4c62-17.8,112.8-39,161.9-59.5c7-2.9,14.3-6,21.4-8.9l1-0.4c1.6-0.7,3.3-1.4,4.9-2
							c30.4-12.2,62.8-23.1,97.1-34.6c30-10.1,61-20.5,93.5-32.7c113.8-42.9,244.5-84.5,354.2-34.3c25.5,11.6,49,27.2,71.8,47.7
							c30.5,27.2,56.4,59.6,81.4,91c24.5,30.6,49.7,62.3,79.3,88.9c35.1,31.6,75.8,53.6,120.9,65.4c41.3,10.8,87.5,13.3,137.4,7.6
							c80.2-9.4,171.1-38.6,270.4-86.6c111.4-53.9,188.9-96.8,230.5-127.4l-0.9-1.2c-41.5,30.6-118.9,73.4-230.2,127.3
							c-99.1,47.9-189.9,77-269.9,86.4c-103.9,12-190.4-12.4-257.1-72.6c-29.5-26.5-54.7-58.2-79.1-88.8
							c-25-31.4-50.9-63.8-81.6-91.1c-23-20.5-46.6-36.2-72.2-47.9c-26.3-12.1-55.7-19.4-87.4-21.9c-28-2.2-58.8-0.6-91.5,4.6
							c-60.7,9.7-120.7,30.5-176.4,51.6c-32.5,12.2-63.5,22.7-93.5,32.7c-34.3,11.5-66.7,22.4-97.2,34.7c-1.6,0.7-3.3,1.4-4.9,2
							l-1,0.4c-7.2,3-14.4,6-21.4,8.9c-49.1,20.5-99.8,41.7-161.8,59.4c-111.2,31.9-222.4-23.9-320.6-73.2
							c-19.5-9.8-37.9-19-55.8-27.3c-4.6-2.2-10.1-4.7-15.6-7.1c-66.3-29.8-128.9-46.2-191.3-50
							C623.1,150.9,606.3,150.8,589.3,151.5L589.3,151.5z"/>
					</g>
					<g transform="matrix(-1,0,0,1,2206.71,882.846)">
						<path class="st3" d="M564.8,151.7c-45.8,2-93,10.6-142.8,26.1l-4.3,1.3c-157.7,48.8-293.8,91-458.1,79.5l-0.1,1.6
							c75.2,5.2,149.2-0.3,233.1-17.6c74.8-15.4,148-38,225.6-62.1l4.3-1.3c141.3-43.8,264.3-33.2,398.8,34.2
							c4.5,2.3,9.5,4.8,15.6,8c16.6,8.6,33.7,18.1,51.7,28.1c47.7,26.5,101.8,56.6,156.9,74.7c63.1,20.7,118.4,22.7,168.9,5.9
							c57.6-19.1,105.1-44.6,151-69.3c8.7-4.7,17.7-9.5,26.5-14.2l0.3-0.2c1.8-0.9,3.6-1.9,5.4-2.8c42.5-21.9,89.4-41,139-61.2
							c14.6-6,29.8-12.1,45.1-18.5c107.6-44.6,245.3-88.9,355.6-34.5c25.5,12.6,48.8,29.3,71.4,51.3c30,29.1,55.1,63.8,79.3,97.3
							c23.8,33,48.5,67,77.7,95.7c34.7,34,75.4,57.8,120.8,70.9c41.4,11.9,87.9,15.3,138.3,9.9c79.9-8.7,171.4-38,271.8-87.3
							c96.8-47.5,183.1-96.3,230.8-130.6l-0.9-1.3c-47.6,34.3-133.8,83-230.6,130.5c-100.2,49.1-191.5,78.4-271.3,87.1
							c-105.1,11.2-191.8-15.8-257.9-80.4c-29.2-28.5-53.8-62.5-77.6-95.4c-24.3-33.6-49.4-68.3-79.5-97.5
							c-22.7-22.1-46.2-38.9-71.8-51.6c-26.4-13-56-21.2-87.8-24.2c-28.3-2.7-59.3-1.3-92.1,3.9c-65.3,10.5-128.9,34.7-177,54.7
							c-15.3,6.3-30.4,12.5-45.1,18.5c-49.6,20.2-96.6,39.3-139.1,61.2c-1.8,0.9-3.6,1.9-5.4,2.8l-0.3,0.2
							c-8.9,4.7-17.8,9.5-26.5,14.2c-45.8,24.7-93.2,50.1-150.8,69.2c-112.6,37.3-225.2-25.3-324.5-80.5
							c-18.1-10.1-35.2-19.6-51.8-28.2c-6.2-3.2-11.1-5.7-15.6-8C755,178.6,692,159.4,629.1,153.4
							C607.9,151.4,586.5,150.8,564.8,151.7L564.8,151.7z"/>
					</g>
					<g transform="matrix(-1,0,0,1,2207.89,879.706)">
						<path class="st3" d="M1781.8,94.1c-14.6,0.6-29.6,2.2-45.1,4.7c-52.2,8.4-110.2,27.3-177.5,57.9
							c-69.6,31.6-126.4,59.4-177.7,92c-1.9,1.2-3.7,2.4-5.6,3.6c-9.5,6.2-19.2,12.7-28.6,18.9c-43.5,29-88.4,58.9-142.8,79.5
							c-113.6,42.9-227.4-26.6-327.7-87.9c-16.9-10.3-32.9-20.1-48.5-29c-5.9-3.4-11-6.3-15.7-8.8c-67.3-37.2-130.8-59.3-194.2-67.4
							c-66.8-8.5-135.3-2-209.5,20c-8.7,2.6-17.4,5.2-26,7.8C238.7,229,102.4,270.1-54.6,260.2l-0.1,1.7
							c71.8,4.5,142.7-0.9,223.1-17.2c71.6-14.4,141.2-35.5,215-57.7c8.6-2.6,17.3-5.2,26-7.8c45.3-13.4,88.8-21.2,131.3-23
							c91.3-4,178.5,19.1,271,70.2c4.7,2.6,9.8,5.5,15.6,8.8c15.5,8.9,31.5,18.7,48.4,29c48.1,29.4,102.7,62.7,158.4,82.6
							c63.9,22.9,119.8,24.6,170.8,5.4c54.6-20.6,99.6-50.6,143.2-79.7c9.3-6.2,19-12.7,28.6-18.9c1.9-1.2,3.7-2.4,5.6-3.6
							c51.2-32.6,108-60.3,177.5-91.9c97.6-44.3,240.7-96.2,356.9-34.7c25.5,13.5,48.8,31.4,71,54.9c29.5,31,53.8,67.9,77.2,103.6
							c23.2,35.3,47.2,71.8,76.2,102.4c34.4,36.3,75,62,120.7,76.5c41.5,13.1,88.4,17.2,139.2,12.2c79.7-7.9,171.7-37.5,273.2-87.9
							c84.2-41.8,174.9-94.3,231.1-133.8l-1-1.4c-56.1,39.4-146.8,91.9-230.9,133.7c-101.4,50.3-193.1,79.9-272.7,87.8
							c-106.3,10.4-193.3-19.2-258.5-88.1c-28.9-30.5-52.9-66.9-76-102.2c-23.5-35.7-47.8-72.7-77.4-103.8
							c-22.4-23.6-45.7-41.6-71.4-55.2c-26.6-14-56.2-22.9-88.2-26.4C1814.2,93.8,1798.3,93.4,1781.8,94.1L1781.8,94.1z"/>
					</g>
					<g transform="matrix(-1,0,0,1,2209.07,893.009)">
						<path class="st3" d="M1758.1,68.6c-64.7,2.8-138.5,24.7-220.8,65.5c-66.6,33.1-122.6,67.2-171.2,104.3
							c-1.8,1.4-3.6,2.8-5.4,4.2c-9.9,7.7-19.9,15.8-29.6,23.6c-41.4,33.3-84.1,67.7-135.9,89.8c-114.3,48.7-234.1-31.1-330.5-95.3
							c-15.9-10.6-31-20.6-45.6-29.9c-5.7-3.6-10.9-6.8-15.7-9.7c-67.8-41-131.8-65.9-195.6-76.1c-29.2-4.7-58.7-6.4-88.8-5.1
							c-39.6,1.7-80.3,8.7-122.9,20.9c-16.8,4.9-33.6,9.8-49.9,14.6c-136.8,40.2-266,78.2-414.9,69.9l-0.1,1.7
							c149.2,8.4,278.5-29.7,415.5-69.9c16.3-4.8,33.1-9.7,49.9-14.6c143.6-41.2,268.8-22.7,405.9,60.1c4.8,2.9,9.9,6.1,15.6,9.7
							c14.6,9.2,29.7,19.2,45.6,29.8c48.5,32.3,103.5,68.9,159.8,90.7c64.7,25,121,26.6,172.3,4.7c52-22.2,94.9-56.7,136.3-90.1
							c9.7-7.8,19.7-15.9,29.6-23.6c1.8-1.4,3.6-2.8,5.4-4.2c48.6-37.1,104.5-71.1,171-104.2c148.3-73.7,268.9-85.4,358.3-34.9
							c25.5,14.4,48.6,33.5,70.6,58.5c29,32.9,52.5,72,75.2,109.8c22.6,37.6,45.9,76.5,74.6,109.2c34,38.7,74.6,66.3,120.6,82
							c41.6,14.2,88.8,19.1,140.1,14.5c42.5-3.8,89-14.2,138.1-30.7c42.8-14.4,88.7-33.9,136.6-57.9c74.7-37.6,161.2-88.7,231.4-137
							l-1-1.4c-70.2,48.2-156.6,99.3-231.2,136.8c-102.5,51.5-194.7,81.3-274,88.5c-107.5,9.6-194.7-22.6-259.2-95.9
							c-28.6-32.5-51.9-71.4-74.5-108.9c-22.7-37.9-46.2-77-75.3-110.1c-22.1-25.1-45.3-44.3-71-58.8
							C1857,76.5,1810.5,66.3,1758.1,68.6L1758.1,68.6z"/>
					</g>
					<g transform="matrix(-1,0,0,1,2210.25,893.094)">
						<path class="st3" d="M1734.4,56.2c-13.2,0.6-26.8,2-40.7,4.2c-29.6,4.7-60.8,13.2-92.9,25.2c-28,10.5-56.7,23.6-85.4,39.2
							c-59,31.9-114.4,71.2-164.8,116.7c-11.9,10.7-23.8,22.1-35.3,33.1c-39.4,37.6-80.1,76.4-129.5,100c-51,24.3-107.3,23-172.2-4
							C957,346.9,901.7,307,852.9,271.8c-20.7-14.9-40.2-29-58.8-41.2c-68.3-44.7-132.8-72.5-197-84.9c-32.7-6.3-65.8-8.7-99.6-7.3
							c-37,1.6-74.9,7.9-114.3,18.8c-23.9,6.6-47.7,13.5-70.8,20.1C182.1,215.1,59,250.6-82.8,243.6l-0.1,1.8
							c142.1,7,265.3-28.5,395.8-66.2c23-6.6,46.8-13.5,70.7-20.1c144.7-40.1,271-17.6,409.5,73.1c18.5,12.1,38.1,26.2,58.7,41.1
							c48.9,35.3,104.3,75.2,161.1,98.9c65.4,27.3,122.2,28.6,173.7,4c49.7-23.7,90.6-62.7,130-100.4c11.5-11,23.4-22.4,35.3-33.1
							c50.3-45.4,105.6-84.6,164.4-116.4c82.1-44.4,238-108.1,359.7-35.1c67.7,40.6,106.1,110.5,143.2,178.2
							c21.9,40,44.6,81.3,73.1,116c24.3,29.6,52.1,53.2,82.9,70.3c28.7,16,60.7,26.7,95.1,31.8c31.8,4.7,66.4,4.8,103,0.2
							c33.4-4.2,69.3-12.4,106.7-24.3c63.7-20.3,131.8-51.2,208.1-94.3c63.5-35.9,120.9-73.5,173.4-108.8l-1-1.5
							c-119.5,80.3-248.4,160.5-381.1,202.9c-169.4,54.1-299.2,28.1-385.8-77.5c-28.4-34.6-51-75.8-72.9-115.7
							c-18.6-33.9-37.8-68.9-60.5-99.9c-25.5-34.8-52.8-60.6-83.4-79C1835.9,65.1,1788.1,53.9,1734.4,56.2L1734.4,56.2z"/>
					</g>
				</g>
			</g>
		</g>
	</g>
</g>
</svg>
