<svg width="322" height="107" viewBox="0 0 322 107" fill="none" xmlns="http://www.w3.org/2000/svg">
<path d="M14.3613 41.4639C10.6009 41.4639 7.60124 40.2145 5.3623 37.7158C3.13574 35.2171 2.02246 31.9701 2.02246 27.9746C2.02246 23.7318 3.16667 20.3363 5.45508 17.7881C7.75586 15.2275 10.8916 13.9473 14.8623 13.9473C18.4495 13.9473 21.3503 15.1781 23.5645 17.6396C25.791 20.0889 26.9043 23.305 26.9043 27.2881C26.9043 31.6917 25.7663 35.1553 23.4902 37.6787C21.2142 40.2021 18.1712 41.4639 14.3613 41.4639ZM14.5469 15.6172C11.4544 15.6172 8.90625 16.7367 6.90234 18.9756C4.91081 21.2145 3.91504 24.1462 3.91504 27.7705C3.91504 31.432 4.86133 34.3512 6.75391 36.5283C8.64648 38.693 11.1699 39.7754 14.3242 39.7754C17.6146 39.7754 20.2184 38.7054 22.1357 36.5654C24.0531 34.4131 25.0117 31.4196 25.0117 27.585C25.0117 23.8245 24.0716 20.8929 22.1914 18.79C20.3236 16.6748 17.7754 15.6172 14.5469 15.6172ZM51.1738 41L35.3281 19.4951C35.0065 19.0622 34.722 18.6292 34.4746 18.1963L34.2334 17.8252H34.1592C34.1839 18.1468 34.1963 18.5365 34.1963 18.9941V41H32.3594V14.3926H33.7695L49.5039 35.7119C49.8503 36.182 50.2275 36.751 50.6357 37.4189H50.7285C50.6667 36.5531 50.6357 35.8109 50.6357 35.1924V14.3926H52.4727V41H51.1738ZM59.3008 41V14.3926H66.2959C68.3864 14.3926 70.0501 14.9554 71.2871 16.0811C72.5241 17.2067 73.1426 18.6973 73.1426 20.5527C73.1426 22.099 72.7282 23.4411 71.8994 24.5791C71.083 25.7048 69.9388 26.5026 68.4668 26.9727V27.0469C70.3099 27.2201 71.7633 27.8818 72.8271 29.0322C73.891 30.1702 74.4229 31.6237 74.4229 33.3926C74.4229 35.6315 73.6992 37.4622 72.252 38.8848C70.8047 40.2949 68.8688 41 66.4443 41H59.3008ZM61.1377 16.0811V26.3789H64.8486C66.7783 26.3789 68.3245 25.8841 69.4873 24.8945C70.6501 23.9049 71.2314 22.5628 71.2314 20.8682C71.2314 17.6768 69.3451 16.0811 65.5723 16.0811H61.1377ZM61.1377 28.0488V39.3301H66.0732C68.1637 39.3301 69.7594 38.8291 70.8604 37.8271C71.9736 36.8252 72.5303 35.4027 72.5303 33.5596C72.5303 29.8857 70.0378 28.0488 65.0527 28.0488H61.1377ZM90.918 41.4639C87.1576 41.4639 84.1579 40.2145 81.9189 37.7158C79.6924 35.2171 78.5791 31.9701 78.5791 27.9746C78.5791 23.7318 79.7233 20.3363 82.0117 17.7881C84.3125 15.2275 87.4482 13.9473 91.4189 13.9473C95.0062 13.9473 97.9069 15.1781 100.121 17.6396C102.348 20.0889 103.461 23.305 103.461 27.2881C103.461 31.6917 102.323 35.1553 100.047 37.6787C97.7708 40.2021 94.7279 41.4639 90.918 41.4639ZM91.1035 15.6172C88.0111 15.6172 85.4629 16.7367 83.459 18.9756C81.4674 21.2145 80.4717 24.1462 80.4717 27.7705C80.4717 31.432 81.418 34.3512 83.3105 36.5283C85.2031 38.693 87.7266 39.7754 90.8809 39.7754C94.1712 39.7754 96.7751 38.7054 98.6924 36.5654C100.61 34.4131 101.568 31.4196 101.568 27.585C101.568 23.8245 100.628 20.8929 98.748 18.79C96.8802 16.6748 94.332 15.6172 91.1035 15.6172ZM125.467 41L122.424 32.7246H110.883L107.84 41H105.817L115.855 14.3926H117.6L127.526 41H125.467ZM117.303 18.7344C117.167 18.3633 117.055 17.9984 116.969 17.6396C116.882 17.3304 116.789 17.0212 116.69 16.7119H116.616C116.406 17.5283 116.202 18.1901 116.004 18.6973L111.532 31.0361H121.793L117.303 18.7344ZM145.654 41L142.11 33.207C141.381 31.599 140.651 30.5228 139.921 29.9785C139.191 29.4219 138.276 29.1436 137.175 29.1436H133.872V41H132.035V14.3926H139.42C141.77 14.3926 143.613 15.0296 144.949 16.3037C146.298 17.5654 146.972 19.2354 146.972 21.3135C146.972 23.2308 146.421 24.8327 145.32 26.1191C144.219 27.4056 142.679 28.2344 140.7 28.6055V28.6797C141.752 29.1003 142.778 30.3805 143.78 32.5205L147.732 41H145.654ZM133.872 16.0811V27.4736H138.455C140.484 27.4736 142.092 26.9417 143.279 25.8779C144.479 24.8141 145.079 23.3545 145.079 21.499C145.079 19.8044 144.541 18.4808 143.465 17.5283C142.389 16.5635 140.849 16.0811 138.845 16.0811H133.872ZM153.15 41V14.3926H159.812C164.228 14.3926 167.586 15.4935 169.887 17.6953C172.188 19.8971 173.338 23.1071 173.338 27.3252C173.338 31.3825 172.101 34.679 169.627 37.2148C167.165 39.7383 163.764 41 159.422 41H153.15ZM154.987 16.0811V39.3301H159.162C163.108 39.3301 166.139 38.3096 168.254 36.2686C170.369 34.2152 171.427 31.2588 171.427 27.3994C171.427 19.8538 167.462 16.0811 159.533 16.0811H154.987ZM178.756 41V14.3926H180.593V41H178.756ZM206.254 41L190.408 19.4951C190.087 19.0622 189.802 18.6292 189.555 18.1963L189.313 17.8252H189.239C189.264 18.1468 189.276 18.5365 189.276 18.9941V41H187.439V14.3926H188.85L204.584 35.7119C204.93 36.182 205.308 36.751 205.716 37.4189H205.809C205.747 36.5531 205.716 35.8109 205.716 35.1924V14.3926H207.553V41H206.254ZM233.622 39.1445C230.876 40.6908 228.049 41.4639 225.143 41.4639C221.518 41.4639 218.587 40.2331 216.348 37.7715C214.109 35.3099 212.989 32.0814 212.989 28.0859C212.989 24.0534 214.195 20.6888 216.607 17.9922C219.02 15.2956 222.242 13.9473 226.274 13.9473C228.612 13.9473 230.882 14.4173 233.084 15.3574V17.3613C230.672 16.1986 228.315 15.6172 226.015 15.6172C222.662 15.6172 219.966 16.7614 217.925 19.0498C215.896 21.3382 214.882 24.2575 214.882 27.8076C214.882 31.5433 215.834 34.4749 217.739 36.6025C219.657 38.7178 222.236 39.7754 225.477 39.7754C227.876 39.7754 229.979 39.2559 231.785 38.2168V29.4404H225.514V27.7705H233.622V39.1445ZM250.191 41V14.3926H256.853C261.269 14.3926 264.627 15.4935 266.928 17.6953C269.229 19.8971 270.379 23.1071 270.379 27.3252C270.379 31.3825 269.142 34.679 266.668 37.2148C264.206 39.7383 260.805 41 256.463 41H250.191ZM252.028 16.0811V39.3301H256.203C260.149 39.3301 263.18 38.3096 265.295 36.2686C267.41 34.2152 268.468 31.2588 268.468 27.3994C268.468 19.8538 264.503 16.0811 256.574 16.0811H252.028ZM286.744 41.4639C282.984 41.4639 279.984 40.2145 277.745 37.7158C275.519 35.2171 274.405 31.9701 274.405 27.9746C274.405 23.7318 275.549 20.3363 277.838 17.7881C280.139 15.2275 283.274 13.9473 287.245 13.9473C290.832 13.9473 293.733 15.1781 295.947 17.6396C298.174 20.0889 299.287 23.305 299.287 27.2881C299.287 31.6917 298.149 35.1553 295.873 37.6787C293.597 40.2021 290.554 41.4639 286.744 41.4639ZM286.93 15.6172C283.837 15.6172 281.289 16.7367 279.285 18.9756C277.294 21.2145 276.298 24.1462 276.298 27.7705C276.298 31.432 277.244 34.3512 279.137 36.5283C281.029 38.693 283.553 39.7754 286.707 39.7754C289.997 39.7754 292.601 38.7054 294.519 36.5654C296.436 34.4131 297.395 31.4196 297.395 27.585C297.395 23.8245 296.454 20.8929 294.574 18.79C292.706 16.6748 290.158 15.6172 286.93 15.6172ZM303.907 40.0537V37.957C305.812 39.1693 307.742 39.7754 309.696 39.7754C311.774 39.7754 313.352 39.3486 314.428 38.4951C315.504 37.6292 316.042 36.4232 316.042 34.877C316.042 33.5163 315.677 32.4339 314.947 31.6299C314.23 30.8135 312.665 29.7064 310.253 28.3086C307.556 26.7376 305.849 25.4264 305.132 24.375C304.414 23.3112 304.056 22.0866 304.056 20.7012C304.056 18.821 304.785 17.2253 306.245 15.9141C307.705 14.6029 309.653 13.9473 312.09 13.9473C313.673 13.9473 315.257 14.2132 316.84 14.7451V16.6748C315.281 15.9697 313.618 15.6172 311.849 15.6172C310.043 15.6172 308.608 16.0749 307.544 16.9902C306.493 17.9056 305.967 19.0684 305.967 20.4785C305.967 21.8392 306.326 22.9215 307.043 23.7256C307.773 24.5296 309.338 25.6243 311.737 27.0098C314.224 28.4199 315.875 29.6755 316.691 30.7764C317.52 31.8649 317.935 33.1204 317.935 34.543C317.935 36.584 317.223 38.2477 315.801 39.5342C314.391 40.8206 312.393 41.4639 309.808 41.4639C308.892 41.4639 307.835 41.3216 306.635 41.0371C305.447 40.7526 304.538 40.4248 303.907 40.0537Z" fill="#0065BD"/>
<path d="M29.8184 96H23.1328L11.0127 77.5225C10.3018 76.4424 9.80957 75.6289 9.53613 75.082H9.4541C9.56348 76.1211 9.61816 77.707 9.61816 79.8398V96H3.36328V66.5918H10.5L22.1689 84.4951C22.7021 85.3018 23.1943 86.1016 23.6455 86.8945H23.7275C23.6182 86.2109 23.5635 84.8643 23.5635 82.8545V66.5918H29.8184V96ZM48.9727 96.5127C44.7617 96.5127 41.3301 95.1455 38.6777 92.4111C36.0254 89.6631 34.6992 86.0879 34.6992 81.6855C34.6992 77.0371 36.0459 73.2773 38.7393 70.4062C41.4326 67.5352 45.001 66.0996 49.4443 66.0996C53.6416 66.0996 57.0322 67.4736 59.6162 70.2217C62.2139 72.9697 63.5127 76.5928 63.5127 81.0908C63.5127 85.7119 62.166 89.4375 59.4727 92.2676C56.793 95.0977 53.293 96.5127 48.9727 96.5127ZM49.2598 71.8008C46.9355 71.8008 45.0898 72.6758 43.7227 74.4258C42.3555 76.1621 41.6719 78.4658 41.6719 81.3369C41.6719 84.249 42.3555 86.5527 43.7227 88.248C45.0898 89.9434 46.8809 90.791 49.0957 90.791C51.3789 90.791 53.1904 89.9707 54.5303 88.3301C55.8701 86.6758 56.54 84.3857 56.54 81.46C56.54 78.4111 55.8906 76.0391 54.5918 74.3438C53.293 72.6484 51.5156 71.8008 49.2598 71.8008ZM92.9004 66.5918L82.7695 96H75.2637L65.2559 66.5918H72.3926L78.5244 87.0586C78.8525 88.166 79.0508 89.1436 79.1191 89.9912H79.2422C79.3379 89.0752 79.5498 88.0703 79.8779 86.9766L85.9688 66.5918H92.9004ZM108.773 96.5127C104.562 96.5127 101.131 95.1455 98.4785 92.4111C95.8262 89.6631 94.5 86.0879 94.5 81.6855C94.5 77.0371 95.8467 73.2773 98.54 70.4062C101.233 67.5352 104.802 66.0996 109.245 66.0996C113.442 66.0996 116.833 67.4736 119.417 70.2217C122.015 72.9697 123.313 76.5928 123.313 81.0908C123.313 85.7119 121.967 89.4375 119.273 92.2676C116.594 95.0977 113.094 96.5127 108.773 96.5127ZM109.061 71.8008C106.736 71.8008 104.891 72.6758 103.523 74.4258C102.156 76.1621 101.473 78.4658 101.473 81.3369C101.473 84.249 102.156 86.5527 103.523 88.248C104.891 89.9434 106.682 90.791 108.896 90.791C111.18 90.791 112.991 89.9707 114.331 88.3301C115.671 86.6758 116.341 84.3857 116.341 81.46C116.341 78.4111 115.691 76.0391 114.393 74.3438C113.094 72.6484 111.316 71.8008 109.061 71.8008ZM126.861 94.8721V88.3096C128.051 89.3076 129.343 90.0596 130.737 90.5654C132.132 91.0576 133.54 91.3037 134.962 91.3037C135.796 91.3037 136.521 91.2285 137.136 91.0781C137.765 90.9277 138.284 90.7227 138.694 90.4629C139.118 90.1895 139.433 89.875 139.638 89.5195C139.843 89.1504 139.945 88.7539 139.945 88.3301C139.945 87.7559 139.781 87.2432 139.453 86.792C139.125 86.3408 138.674 85.9238 138.1 85.541C137.539 85.1582 136.869 84.7891 136.09 84.4336C135.311 84.0781 134.47 83.7158 133.567 83.3467C131.271 82.3896 129.555 81.2207 128.42 79.8398C127.299 78.459 126.738 76.791 126.738 74.8359C126.738 73.3047 127.046 71.9922 127.661 70.8984C128.276 69.791 129.11 68.8818 130.163 68.1709C131.229 67.46 132.46 66.9404 133.854 66.6123C135.249 66.2705 136.726 66.0996 138.284 66.0996C139.815 66.0996 141.169 66.1953 142.345 66.3867C143.534 66.5645 144.628 66.8447 145.626 67.2275V73.3594C145.134 73.0176 144.594 72.7168 144.006 72.457C143.432 72.1973 142.837 71.9854 142.222 71.8213C141.606 71.6436 140.991 71.5137 140.376 71.4316C139.774 71.3496 139.2 71.3086 138.653 71.3086C137.901 71.3086 137.218 71.3838 136.603 71.5342C135.987 71.6709 135.468 71.8691 135.044 72.1289C134.62 72.3887 134.292 72.7031 134.06 73.0723C133.827 73.4277 133.711 73.8311 133.711 74.2822C133.711 74.7744 133.841 75.2188 134.101 75.6152C134.36 75.998 134.729 76.3672 135.208 76.7227C135.687 77.0645 136.268 77.4062 136.951 77.748C137.635 78.0762 138.407 78.418 139.269 78.7734C140.444 79.2656 141.497 79.792 142.427 80.3525C143.37 80.8994 144.177 81.5215 144.847 82.2188C145.517 82.916 146.029 83.7158 146.385 84.6182C146.74 85.5068 146.918 86.5459 146.918 87.7354C146.918 89.376 146.604 90.7568 145.975 91.8779C145.359 92.9854 144.519 93.8877 143.452 94.585C142.386 95.2686 141.142 95.7607 139.72 96.0615C138.312 96.3623 136.821 96.5127 135.249 96.5127C133.636 96.5127 132.098 96.376 130.635 96.1025C129.186 95.8291 127.928 95.4189 126.861 94.8721ZM180.879 96H163.365V66.5918H169.989V90.627H180.879V96ZM193.942 66.5918V71.7188H191.481V90.873H193.942V96H182.396V90.873H184.857V71.7188H182.396V66.5918H193.942ZM194.845 57.2402L188.426 63.8643H183.75L189.082 57.2402H194.845ZM198.188 96V66.5918H208.605C219.051 66.5918 224.273 71.3701 224.273 80.9268C224.273 85.5068 222.845 89.1641 219.987 91.8984C217.144 94.6328 213.35 96 208.605 96H198.188ZM204.812 71.9854V90.627H208.093C210.964 90.627 213.213 89.7656 214.84 88.043C216.48 86.3203 217.301 83.9756 217.301 81.0088C217.301 78.2061 216.487 76.0049 214.86 74.4053C213.247 72.792 210.978 71.9854 208.052 71.9854H204.812ZM246.791 96H229.154V66.5918H246.114V71.9854H235.778V78.5273H245.396V83.9004H235.778V90.627H246.791V96ZM276.179 96H268.57L263.997 88.4326C263.655 87.8584 263.327 87.3457 263.013 86.8945C262.698 86.4434 262.377 86.0605 262.049 85.7461C261.734 85.418 261.399 85.1719 261.044 85.0078C260.702 84.8301 260.326 84.7412 259.916 84.7412H258.132V96H251.508V66.5918H262.008C269.145 66.5918 272.713 69.2578 272.713 74.5898C272.713 75.6152 272.556 76.5654 272.241 77.4404C271.927 78.3018 271.482 79.0811 270.908 79.7783C270.334 80.4756 269.637 81.0771 268.816 81.583C268.01 82.0889 267.107 82.4854 266.109 82.7725V82.8545C266.547 82.9912 266.971 83.2168 267.381 83.5312C267.791 83.832 268.188 84.1875 268.57 84.5977C268.953 85.0078 269.315 85.4521 269.657 85.9307C270.013 86.3955 270.334 86.8535 270.621 87.3047L276.179 96ZM258.132 71.5547V79.7373H261.003C262.425 79.7373 263.566 79.3271 264.428 78.5068C265.303 77.6729 265.74 76.6406 265.74 75.4102C265.74 72.8398 264.202 71.5547 261.126 71.5547H258.132ZM296.584 96H278.947V66.5918H295.907V71.9854H285.571V78.5273H295.189V83.9004H285.571V90.627H296.584V96ZM299.947 94.8721V88.3096C301.137 89.3076 302.429 90.0596 303.823 90.5654C305.218 91.0576 306.626 91.3037 308.048 91.3037C308.882 91.3037 309.606 91.2285 310.222 91.0781C310.851 90.9277 311.37 90.7227 311.78 90.4629C312.204 90.1895 312.519 89.875 312.724 89.5195C312.929 89.1504 313.031 88.7539 313.031 88.3301C313.031 87.7559 312.867 87.2432 312.539 86.792C312.211 86.3408 311.76 85.9238 311.186 85.541C310.625 85.1582 309.955 84.7891 309.176 84.4336C308.396 84.0781 307.556 83.7158 306.653 83.3467C304.356 82.3896 302.641 81.2207 301.506 79.8398C300.385 78.459 299.824 76.791 299.824 74.8359C299.824 73.3047 300.132 71.9922 300.747 70.8984C301.362 69.791 302.196 68.8818 303.249 68.1709C304.315 67.46 305.546 66.9404 306.94 66.6123C308.335 66.2705 309.812 66.0996 311.37 66.0996C312.901 66.0996 314.255 66.1953 315.431 66.3867C316.62 66.5645 317.714 66.8447 318.712 67.2275V73.3594C318.22 73.0176 317.68 72.7168 317.092 72.457C316.518 72.1973 315.923 71.9854 315.308 71.8213C314.692 71.6436 314.077 71.5137 313.462 71.4316C312.86 71.3496 312.286 71.3086 311.739 71.3086C310.987 71.3086 310.304 71.3838 309.688 71.5342C309.073 71.6709 308.554 71.8691 308.13 72.1289C307.706 72.3887 307.378 72.7031 307.146 73.0723C306.913 73.4277 306.797 73.8311 306.797 74.2822C306.797 74.7744 306.927 75.2188 307.187 75.6152C307.446 75.998 307.815 76.3672 308.294 76.7227C308.772 77.0645 309.354 77.4062 310.037 77.748C310.721 78.0762 311.493 78.418 312.354 78.7734C313.53 79.2656 314.583 79.792 315.513 80.3525C316.456 80.8994 317.263 81.5215 317.933 82.2188C318.603 82.916 319.115 83.7158 319.471 84.6182C319.826 85.5068 320.004 86.5459 320.004 87.7354C320.004 89.376 319.689 90.7568 319.061 91.8779C318.445 92.9854 317.604 93.8877 316.538 94.585C315.472 95.2686 314.228 95.7607 312.806 96.0615C311.397 96.3623 309.907 96.5127 308.335 96.5127C306.722 96.5127 305.184 96.376 303.721 96.1025C302.271 95.8291 301.014 95.4189 299.947 94.8721Z" fill="#0065BD"/>
</svg>
